<?xml version="1.0" encoding="utf-8" standalone="no"?>
<!DOCTYPE svg PUBLIC "-//W3C//DTD SVG 1.1//EN"
  "http://www.w3.org/Graphics/SVG/1.1/DTD/svg11.dtd">
<svg xmlns:xlink="http://www.w3.org/1999/xlink" width="720pt" height="432pt" viewBox="0 0 720 432" xmlns="http://www.w3.org/2000/svg" version="1.1">
 <metadata>
  <rdf:RDF xmlns:dc="http://purl.org/dc/elements/1.1/" xmlns:cc="http://creativecommons.org/ns#" xmlns:rdf="http://www.w3.org/1999/02/22-rdf-syntax-ns#">
   <cc:Work>
    <dc:type rdf:resource="http://purl.org/dc/dcmitype/StillImage"/>
    <dc:date>2025-06-17T10:41:00.150657</dc:date>
    <dc:format>image/svg+xml</dc:format>
    <dc:creator>
     <cc:Agent>
      <dc:title>Matplotlib v3.7.0, https://matplotlib.org/</dc:title>
     </cc:Agent>
    </dc:creator>
   </cc:Work>
  </rdf:RDF>
 </metadata>
 <defs>
  <style type="text/css">*{stroke-linejoin: round; stroke-linecap: butt}</style>
 </defs>
 <g id="figure_1">
  <g id="patch_1">
   <path d="M 0 432 
L 720 432 
L 720 0 
L 0 0 
z
" style="fill: #ffffff"/>
  </g>
  <g id="axes_1">
   <g id="patch_2">
    <path d="M 46.64 390.04 
L 709.2 390.04 
L 709.2 25.44 
L 46.64 25.44 
z
" style="fill: #ffffff"/>
   </g>
   <g id="matplotlib.axis_1">
    <g id="xtick_1">
     <g id="line2d_1">
      <path d="M 52.917553 390.04 
L 52.917553 25.44 
" clip-path="url(#p48507f3b9a)" style="fill: none; stroke-dasharray: 1.85,0.8; stroke-dashoffset: 0; stroke: #b0b0b0; stroke-width: 0.5"/>
     </g>
     <g id="line2d_2">
      <defs>
       <path id="m961e2ec3dd" d="M 0 0 
L 0 3.5 
" style="stroke: #000000; stroke-width: 0.8"/>
      </defs>
      <g>
       <use xlink:href="#m961e2ec3dd" x="52.917553" y="390.04" style="stroke: #000000; stroke-width: 0.8"/>
      </g>
     </g>
     <g id="text_1">
      <!-- −15 -->
      <g transform="translate(42.36521 404.638438) scale(0.1 -0.1)">
       <defs>
        <path id="DejaVuSans-2212" d="M 678 2272 
L 4684 2272 
L 4684 1741 
L 678 1741 
L 678 2272 
z
" transform="scale(0.015625)"/>
        <path id="DejaVuSans-31" d="M 794 531 
L 1825 531 
L 1825 4091 
L 703 3866 
L 703 4441 
L 1819 4666 
L 2450 4666 
L 2450 531 
L 3481 531 
L 3481 0 
L 794 0 
L 794 531 
z
" transform="scale(0.015625)"/>
        <path id="DejaVuSans-35" d="M 691 4666 
L 3169 4666 
L 3169 4134 
L 1269 4134 
L 1269 2991 
Q 1406 3038 1543 3061 
Q 1681 3084 1819 3084 
Q 2600 3084 3056 2656 
Q 3513 2228 3513 1497 
Q 3513 744 3044 326 
Q 2575 -91 1722 -91 
Q 1428 -91 1123 -41 
Q 819 9 494 109 
L 494 744 
Q 775 591 1075 516 
Q 1375 441 1709 441 
Q 2250 441 2565 725 
Q 2881 1009 2881 1497 
Q 2881 1984 2565 2268 
Q 2250 2553 1709 2553 
Q 1456 2553 1204 2497 
Q 953 2441 691 2322 
L 691 4666 
z
" transform="scale(0.015625)"/>
       </defs>
       <use xlink:href="#DejaVuSans-2212"/>
       <use xlink:href="#DejaVuSans-31" x="83.789062"/>
       <use xlink:href="#DejaVuSans-35" x="147.412109"/>
      </g>
     </g>
    </g>
    <g id="xtick_2">
     <g id="line2d_3">
      <path d="M 76.756364 390.04 
L 76.756364 25.44 
" clip-path="url(#p48507f3b9a)" style="fill: none; stroke-dasharray: 1.85,0.8; stroke-dashoffset: 0; stroke: #b0b0b0; stroke-width: 0.5"/>
     </g>
     <g id="line2d_4">
      <g>
       <use xlink:href="#m961e2ec3dd" x="76.756364" y="390.04" style="stroke: #000000; stroke-width: 0.8"/>
      </g>
     </g>
     <g id="text_2">
      <!-- 0 -->
      <g transform="translate(73.575114 404.638438) scale(0.1 -0.1)">
       <defs>
        <path id="DejaVuSans-30" d="M 2034 4250 
Q 1547 4250 1301 3770 
Q 1056 3291 1056 2328 
Q 1056 1369 1301 889 
Q 1547 409 2034 409 
Q 2525 409 2770 889 
Q 3016 1369 3016 2328 
Q 3016 3291 2770 3770 
Q 2525 4250 2034 4250 
z
M 2034 4750 
Q 2819 4750 3233 4129 
Q 3647 3509 3647 2328 
Q 3647 1150 3233 529 
Q 2819 -91 2034 -91 
Q 1250 -91 836 529 
Q 422 1150 422 2328 
Q 422 3509 836 4129 
Q 1250 4750 2034 4750 
z
" transform="scale(0.015625)"/>
       </defs>
       <use xlink:href="#DejaVuSans-30"/>
      </g>
     </g>
    </g>
    <g id="xtick_3">
     <g id="line2d_5">
      <path d="M 100.595174 390.04 
L 100.595174 25.44 
" clip-path="url(#p48507f3b9a)" style="fill: none; stroke-dasharray: 1.85,0.8; stroke-dashoffset: 0; stroke: #b0b0b0; stroke-width: 0.5"/>
     </g>
     <g id="line2d_6">
      <g>
       <use xlink:href="#m961e2ec3dd" x="100.595174" y="390.04" style="stroke: #000000; stroke-width: 0.8"/>
      </g>
     </g>
     <g id="text_3">
      <!-- 15 -->
      <g transform="translate(94.232674 404.638438) scale(0.1 -0.1)">
       <use xlink:href="#DejaVuSans-31"/>
       <use xlink:href="#DejaVuSans-35" x="63.623047"/>
      </g>
     </g>
    </g>
    <g id="xtick_4">
     <g id="line2d_7">
      <path d="M 124.433984 390.04 
L 124.433984 25.44 
" clip-path="url(#p48507f3b9a)" style="fill: none; stroke-dasharray: 1.85,0.8; stroke-dashoffset: 0; stroke: #b0b0b0; stroke-width: 0.5"/>
     </g>
     <g id="line2d_8">
      <g>
       <use xlink:href="#m961e2ec3dd" x="124.433984" y="390.04" style="stroke: #000000; stroke-width: 0.8"/>
      </g>
     </g>
     <g id="text_4">
      <!-- 30 -->
      <g transform="translate(118.071484 404.638438) scale(0.1 -0.1)">
       <defs>
        <path id="DejaVuSans-33" d="M 2597 2516 
Q 3050 2419 3304 2112 
Q 3559 1806 3559 1356 
Q 3559 666 3084 287 
Q 2609 -91 1734 -91 
Q 1441 -91 1130 -33 
Q 819 25 488 141 
L 488 750 
Q 750 597 1062 519 
Q 1375 441 1716 441 
Q 2309 441 2620 675 
Q 2931 909 2931 1356 
Q 2931 1769 2642 2001 
Q 2353 2234 1838 2234 
L 1294 2234 
L 1294 2753 
L 1863 2753 
Q 2328 2753 2575 2939 
Q 2822 3125 2822 3475 
Q 2822 3834 2567 4026 
Q 2313 4219 1838 4219 
Q 1578 4219 1281 4162 
Q 984 4106 628 3988 
L 628 4550 
Q 988 4650 1302 4700 
Q 1616 4750 1894 4750 
Q 2613 4750 3031 4423 
Q 3450 4097 3450 3541 
Q 3450 3153 3228 2886 
Q 3006 2619 2597 2516 
z
" transform="scale(0.015625)"/>
       </defs>
       <use xlink:href="#DejaVuSans-33"/>
       <use xlink:href="#DejaVuSans-30" x="63.623047"/>
      </g>
     </g>
    </g>
    <g id="xtick_5">
     <g id="line2d_9">
      <path d="M 148.272794 390.04 
L 148.272794 25.44 
" clip-path="url(#p48507f3b9a)" style="fill: none; stroke-dasharray: 1.85,0.8; stroke-dashoffset: 0; stroke: #b0b0b0; stroke-width: 0.5"/>
     </g>
     <g id="line2d_10">
      <g>
       <use xlink:href="#m961e2ec3dd" x="148.272794" y="390.04" style="stroke: #000000; stroke-width: 0.8"/>
      </g>
     </g>
     <g id="text_5">
      <!-- 45 -->
      <g transform="translate(141.910294 404.638438) scale(0.1 -0.1)">
       <defs>
        <path id="DejaVuSans-34" d="M 2419 4116 
L 825 1625 
L 2419 1625 
L 2419 4116 
z
M 2253 4666 
L 3047 4666 
L 3047 1625 
L 3713 1625 
L 3713 1100 
L 3047 1100 
L 3047 0 
L 2419 0 
L 2419 1100 
L 313 1100 
L 313 1709 
L 2253 4666 
z
" transform="scale(0.015625)"/>
       </defs>
       <use xlink:href="#DejaVuSans-34"/>
       <use xlink:href="#DejaVuSans-35" x="63.623047"/>
      </g>
     </g>
    </g>
    <g id="xtick_6">
     <g id="line2d_11">
      <path d="M 172.111605 390.04 
L 172.111605 25.44 
" clip-path="url(#p48507f3b9a)" style="fill: none; stroke-dasharray: 1.85,0.8; stroke-dashoffset: 0; stroke: #b0b0b0; stroke-width: 0.5"/>
     </g>
     <g id="line2d_12">
      <g>
       <use xlink:href="#m961e2ec3dd" x="172.111605" y="390.04" style="stroke: #000000; stroke-width: 0.8"/>
      </g>
     </g>
     <g id="text_6">
      <!-- 60 -->
      <g transform="translate(165.749105 404.638438) scale(0.1 -0.1)">
       <defs>
        <path id="DejaVuSans-36" d="M 2113 2584 
Q 1688 2584 1439 2293 
Q 1191 2003 1191 1497 
Q 1191 994 1439 701 
Q 1688 409 2113 409 
Q 2538 409 2786 701 
Q 3034 994 3034 1497 
Q 3034 2003 2786 2293 
Q 2538 2584 2113 2584 
z
M 3366 4563 
L 3366 3988 
Q 3128 4100 2886 4159 
Q 2644 4219 2406 4219 
Q 1781 4219 1451 3797 
Q 1122 3375 1075 2522 
Q 1259 2794 1537 2939 
Q 1816 3084 2150 3084 
Q 2853 3084 3261 2657 
Q 3669 2231 3669 1497 
Q 3669 778 3244 343 
Q 2819 -91 2113 -91 
Q 1303 -91 875 529 
Q 447 1150 447 2328 
Q 447 3434 972 4092 
Q 1497 4750 2381 4750 
Q 2619 4750 2861 4703 
Q 3103 4656 3366 4563 
z
" transform="scale(0.015625)"/>
       </defs>
       <use xlink:href="#DejaVuSans-36"/>
       <use xlink:href="#DejaVuSans-30" x="63.623047"/>
      </g>
     </g>
    </g>
    <g id="xtick_7">
     <g id="line2d_13">
      <path d="M 195.950415 390.04 
L 195.950415 25.44 
" clip-path="url(#p48507f3b9a)" style="fill: none; stroke-dasharray: 1.85,0.8; stroke-dashoffset: 0; stroke: #b0b0b0; stroke-width: 0.5"/>
     </g>
     <g id="line2d_14">
      <g>
       <use xlink:href="#m961e2ec3dd" x="195.950415" y="390.04" style="stroke: #000000; stroke-width: 0.8"/>
      </g>
     </g>
     <g id="text_7">
      <!-- 75 -->
      <g transform="translate(189.587915 404.638438) scale(0.1 -0.1)">
       <defs>
        <path id="DejaVuSans-37" d="M 525 4666 
L 3525 4666 
L 3525 4397 
L 1831 0 
L 1172 0 
L 2766 4134 
L 525 4134 
L 525 4666 
z
" transform="scale(0.015625)"/>
       </defs>
       <use xlink:href="#DejaVuSans-37"/>
       <use xlink:href="#DejaVuSans-35" x="63.623047"/>
      </g>
     </g>
    </g>
    <g id="xtick_8">
     <g id="line2d_15">
      <path d="M 219.789225 390.04 
L 219.789225 25.44 
" clip-path="url(#p48507f3b9a)" style="fill: none; stroke-dasharray: 1.85,0.8; stroke-dashoffset: 0; stroke: #b0b0b0; stroke-width: 0.5"/>
     </g>
     <g id="line2d_16">
      <g>
       <use xlink:href="#m961e2ec3dd" x="219.789225" y="390.04" style="stroke: #000000; stroke-width: 0.8"/>
      </g>
     </g>
     <g id="text_8">
      <!-- 90 -->
      <g transform="translate(213.426725 404.638438) scale(0.1 -0.1)">
       <defs>
        <path id="DejaVuSans-39" d="M 703 97 
L 703 672 
Q 941 559 1184 500 
Q 1428 441 1663 441 
Q 2288 441 2617 861 
Q 2947 1281 2994 2138 
Q 2813 1869 2534 1725 
Q 2256 1581 1919 1581 
Q 1219 1581 811 2004 
Q 403 2428 403 3163 
Q 403 3881 828 4315 
Q 1253 4750 1959 4750 
Q 2769 4750 3195 4129 
Q 3622 3509 3622 2328 
Q 3622 1225 3098 567 
Q 2575 -91 1691 -91 
Q 1453 -91 1209 -44 
Q 966 3 703 97 
z
M 1959 2075 
Q 2384 2075 2632 2365 
Q 2881 2656 2881 3163 
Q 2881 3666 2632 3958 
Q 2384 4250 1959 4250 
Q 1534 4250 1286 3958 
Q 1038 3666 1038 3163 
Q 1038 2656 1286 2365 
Q 1534 2075 1959 2075 
z
" transform="scale(0.015625)"/>
       </defs>
       <use xlink:href="#DejaVuSans-39"/>
       <use xlink:href="#DejaVuSans-30" x="63.623047"/>
      </g>
     </g>
    </g>
    <g id="xtick_9">
     <g id="line2d_17">
      <path d="M 243.628036 390.04 
L 243.628036 25.44 
" clip-path="url(#p48507f3b9a)" style="fill: none; stroke-dasharray: 1.85,0.8; stroke-dashoffset: 0; stroke: #b0b0b0; stroke-width: 0.5"/>
     </g>
     <g id="line2d_18">
      <g>
       <use xlink:href="#m961e2ec3dd" x="243.628036" y="390.04" style="stroke: #000000; stroke-width: 0.8"/>
      </g>
     </g>
     <g id="text_9">
      <!-- 105 -->
      <g transform="translate(234.084286 404.638438) scale(0.1 -0.1)">
       <use xlink:href="#DejaVuSans-31"/>
       <use xlink:href="#DejaVuSans-30" x="63.623047"/>
       <use xlink:href="#DejaVuSans-35" x="127.246094"/>
      </g>
     </g>
    </g>
    <g id="xtick_10">
     <g id="line2d_19">
      <path d="M 267.466846 390.04 
L 267.466846 25.44 
" clip-path="url(#p48507f3b9a)" style="fill: none; stroke-dasharray: 1.85,0.8; stroke-dashoffset: 0; stroke: #b0b0b0; stroke-width: 0.5"/>
     </g>
     <g id="line2d_20">
      <g>
       <use xlink:href="#m961e2ec3dd" x="267.466846" y="390.04" style="stroke: #000000; stroke-width: 0.8"/>
      </g>
     </g>
     <g id="text_10">
      <!-- 120 -->
      <g transform="translate(257.923096 404.638438) scale(0.1 -0.1)">
       <defs>
        <path id="DejaVuSans-32" d="M 1228 531 
L 3431 531 
L 3431 0 
L 469 0 
L 469 531 
Q 828 903 1448 1529 
Q 2069 2156 2228 2338 
Q 2531 2678 2651 2914 
Q 2772 3150 2772 3378 
Q 2772 3750 2511 3984 
Q 2250 4219 1831 4219 
Q 1534 4219 1204 4116 
Q 875 4013 500 3803 
L 500 4441 
Q 881 4594 1212 4672 
Q 1544 4750 1819 4750 
Q 2544 4750 2975 4387 
Q 3406 4025 3406 3419 
Q 3406 3131 3298 2873 
Q 3191 2616 2906 2266 
Q 2828 2175 2409 1742 
Q 1991 1309 1228 531 
z
" transform="scale(0.015625)"/>
       </defs>
       <use xlink:href="#DejaVuSans-31"/>
       <use xlink:href="#DejaVuSans-32" x="63.623047"/>
       <use xlink:href="#DejaVuSans-30" x="127.246094"/>
      </g>
     </g>
    </g>
    <g id="xtick_11">
     <g id="line2d_21">
      <path d="M 291.305656 390.04 
L 291.305656 25.44 
" clip-path="url(#p48507f3b9a)" style="fill: none; stroke-dasharray: 1.85,0.8; stroke-dashoffset: 0; stroke: #b0b0b0; stroke-width: 0.5"/>
     </g>
     <g id="line2d_22">
      <g>
       <use xlink:href="#m961e2ec3dd" x="291.305656" y="390.04" style="stroke: #000000; stroke-width: 0.8"/>
      </g>
     </g>
     <g id="text_11">
      <!-- 135 -->
      <g transform="translate(281.761906 404.638438) scale(0.1 -0.1)">
       <use xlink:href="#DejaVuSans-31"/>
       <use xlink:href="#DejaVuSans-33" x="63.623047"/>
       <use xlink:href="#DejaVuSans-35" x="127.246094"/>
      </g>
     </g>
    </g>
    <g id="xtick_12">
     <g id="line2d_23">
      <path d="M 315.144466 390.04 
L 315.144466 25.44 
" clip-path="url(#p48507f3b9a)" style="fill: none; stroke-dasharray: 1.85,0.8; stroke-dashoffset: 0; stroke: #b0b0b0; stroke-width: 0.5"/>
     </g>
     <g id="line2d_24">
      <g>
       <use xlink:href="#m961e2ec3dd" x="315.144466" y="390.04" style="stroke: #000000; stroke-width: 0.8"/>
      </g>
     </g>
     <g id="text_12">
      <!-- 150 -->
      <g transform="translate(305.600716 404.638438) scale(0.1 -0.1)">
       <use xlink:href="#DejaVuSans-31"/>
       <use xlink:href="#DejaVuSans-35" x="63.623047"/>
       <use xlink:href="#DejaVuSans-30" x="127.246094"/>
      </g>
     </g>
    </g>
    <g id="xtick_13">
     <g id="line2d_25">
      <path d="M 338.983277 390.04 
L 338.983277 25.44 
" clip-path="url(#p48507f3b9a)" style="fill: none; stroke-dasharray: 1.85,0.8; stroke-dashoffset: 0; stroke: #b0b0b0; stroke-width: 0.5"/>
     </g>
     <g id="line2d_26">
      <g>
       <use xlink:href="#m961e2ec3dd" x="338.983277" y="390.04" style="stroke: #000000; stroke-width: 0.8"/>
      </g>
     </g>
     <g id="text_13">
      <!-- 165 -->
      <g transform="translate(329.439527 404.638438) scale(0.1 -0.1)">
       <use xlink:href="#DejaVuSans-31"/>
       <use xlink:href="#DejaVuSans-36" x="63.623047"/>
       <use xlink:href="#DejaVuSans-35" x="127.246094"/>
      </g>
     </g>
    </g>
    <g id="xtick_14">
     <g id="line2d_27">
      <path d="M 362.822087 390.04 
L 362.822087 25.44 
" clip-path="url(#p48507f3b9a)" style="fill: none; stroke-dasharray: 1.85,0.8; stroke-dashoffset: 0; stroke: #b0b0b0; stroke-width: 0.5"/>
     </g>
     <g id="line2d_28">
      <g>
       <use xlink:href="#m961e2ec3dd" x="362.822087" y="390.04" style="stroke: #000000; stroke-width: 0.8"/>
      </g>
     </g>
     <g id="text_14">
      <!-- 180 -->
      <g transform="translate(353.278337 404.638438) scale(0.1 -0.1)">
       <defs>
        <path id="DejaVuSans-38" d="M 2034 2216 
Q 1584 2216 1326 1975 
Q 1069 1734 1069 1313 
Q 1069 891 1326 650 
Q 1584 409 2034 409 
Q 2484 409 2743 651 
Q 3003 894 3003 1313 
Q 3003 1734 2745 1975 
Q 2488 2216 2034 2216 
z
M 1403 2484 
Q 997 2584 770 2862 
Q 544 3141 544 3541 
Q 544 4100 942 4425 
Q 1341 4750 2034 4750 
Q 2731 4750 3128 4425 
Q 3525 4100 3525 3541 
Q 3525 3141 3298 2862 
Q 3072 2584 2669 2484 
Q 3125 2378 3379 2068 
Q 3634 1759 3634 1313 
Q 3634 634 3220 271 
Q 2806 -91 2034 -91 
Q 1263 -91 848 271 
Q 434 634 434 1313 
Q 434 1759 690 2068 
Q 947 2378 1403 2484 
z
M 1172 3481 
Q 1172 3119 1398 2916 
Q 1625 2713 2034 2713 
Q 2441 2713 2670 2916 
Q 2900 3119 2900 3481 
Q 2900 3844 2670 4047 
Q 2441 4250 2034 4250 
Q 1625 4250 1398 4047 
Q 1172 3844 1172 3481 
z
" transform="scale(0.015625)"/>
       </defs>
       <use xlink:href="#DejaVuSans-31"/>
       <use xlink:href="#DejaVuSans-38" x="63.623047"/>
       <use xlink:href="#DejaVuSans-30" x="127.246094"/>
      </g>
     </g>
    </g>
    <g id="xtick_15">
     <g id="line2d_29">
      <path d="M 386.660897 390.04 
L 386.660897 25.44 
" clip-path="url(#p48507f3b9a)" style="fill: none; stroke-dasharray: 1.85,0.8; stroke-dashoffset: 0; stroke: #b0b0b0; stroke-width: 0.5"/>
     </g>
     <g id="line2d_30">
      <g>
       <use xlink:href="#m961e2ec3dd" x="386.660897" y="390.04" style="stroke: #000000; stroke-width: 0.8"/>
      </g>
     </g>
     <g id="text_15">
      <!-- 195 -->
      <g transform="translate(377.117147 404.638438) scale(0.1 -0.1)">
       <use xlink:href="#DejaVuSans-31"/>
       <use xlink:href="#DejaVuSans-39" x="63.623047"/>
       <use xlink:href="#DejaVuSans-35" x="127.246094"/>
      </g>
     </g>
    </g>
    <g id="xtick_16">
     <g id="line2d_31">
      <path d="M 410.499707 390.04 
L 410.499707 25.44 
" clip-path="url(#p48507f3b9a)" style="fill: none; stroke-dasharray: 1.85,0.8; stroke-dashoffset: 0; stroke: #b0b0b0; stroke-width: 0.5"/>
     </g>
     <g id="line2d_32">
      <g>
       <use xlink:href="#m961e2ec3dd" x="410.499707" y="390.04" style="stroke: #000000; stroke-width: 0.8"/>
      </g>
     </g>
     <g id="text_16">
      <!-- 210 -->
      <g transform="translate(400.955957 404.638438) scale(0.1 -0.1)">
       <use xlink:href="#DejaVuSans-32"/>
       <use xlink:href="#DejaVuSans-31" x="63.623047"/>
       <use xlink:href="#DejaVuSans-30" x="127.246094"/>
      </g>
     </g>
    </g>
    <g id="xtick_17">
     <g id="line2d_33">
      <path d="M 434.338518 390.04 
L 434.338518 25.44 
" clip-path="url(#p48507f3b9a)" style="fill: none; stroke-dasharray: 1.85,0.8; stroke-dashoffset: 0; stroke: #b0b0b0; stroke-width: 0.5"/>
     </g>
     <g id="line2d_34">
      <g>
       <use xlink:href="#m961e2ec3dd" x="434.338518" y="390.04" style="stroke: #000000; stroke-width: 0.8"/>
      </g>
     </g>
     <g id="text_17">
      <!-- 225 -->
      <g transform="translate(424.794768 404.638438) scale(0.1 -0.1)">
       <use xlink:href="#DejaVuSans-32"/>
       <use xlink:href="#DejaVuSans-32" x="63.623047"/>
       <use xlink:href="#DejaVuSans-35" x="127.246094"/>
      </g>
     </g>
    </g>
    <g id="xtick_18">
     <g id="line2d_35">
      <path d="M 458.177328 390.04 
L 458.177328 25.44 
" clip-path="url(#p48507f3b9a)" style="fill: none; stroke-dasharray: 1.85,0.8; stroke-dashoffset: 0; stroke: #b0b0b0; stroke-width: 0.5"/>
     </g>
     <g id="line2d_36">
      <g>
       <use xlink:href="#m961e2ec3dd" x="458.177328" y="390.04" style="stroke: #000000; stroke-width: 0.8"/>
      </g>
     </g>
     <g id="text_18">
      <!-- 240 -->
      <g transform="translate(448.633578 404.638438) scale(0.1 -0.1)">
       <use xlink:href="#DejaVuSans-32"/>
       <use xlink:href="#DejaVuSans-34" x="63.623047"/>
       <use xlink:href="#DejaVuSans-30" x="127.246094"/>
      </g>
     </g>
    </g>
    <g id="xtick_19">
     <g id="line2d_37">
      <path d="M 482.016138 390.04 
L 482.016138 25.44 
" clip-path="url(#p48507f3b9a)" style="fill: none; stroke-dasharray: 1.85,0.8; stroke-dashoffset: 0; stroke: #b0b0b0; stroke-width: 0.5"/>
     </g>
     <g id="line2d_38">
      <g>
       <use xlink:href="#m961e2ec3dd" x="482.016138" y="390.04" style="stroke: #000000; stroke-width: 0.8"/>
      </g>
     </g>
     <g id="text_19">
      <!-- 255 -->
      <g transform="translate(472.472388 404.638438) scale(0.1 -0.1)">
       <use xlink:href="#DejaVuSans-32"/>
       <use xlink:href="#DejaVuSans-35" x="63.623047"/>
       <use xlink:href="#DejaVuSans-35" x="127.246094"/>
      </g>
     </g>
    </g>
    <g id="xtick_20">
     <g id="line2d_39">
      <path d="M 505.854948 390.04 
L 505.854948 25.44 
" clip-path="url(#p48507f3b9a)" style="fill: none; stroke-dasharray: 1.85,0.8; stroke-dashoffset: 0; stroke: #b0b0b0; stroke-width: 0.5"/>
     </g>
     <g id="line2d_40">
      <g>
       <use xlink:href="#m961e2ec3dd" x="505.854948" y="390.04" style="stroke: #000000; stroke-width: 0.8"/>
      </g>
     </g>
     <g id="text_20">
      <!-- 270 -->
      <g transform="translate(496.311198 404.638438) scale(0.1 -0.1)">
       <use xlink:href="#DejaVuSans-32"/>
       <use xlink:href="#DejaVuSans-37" x="63.623047"/>
       <use xlink:href="#DejaVuSans-30" x="127.246094"/>
      </g>
     </g>
    </g>
    <g id="xtick_21">
     <g id="line2d_41">
      <path d="M 529.693759 390.04 
L 529.693759 25.44 
" clip-path="url(#p48507f3b9a)" style="fill: none; stroke-dasharray: 1.85,0.8; stroke-dashoffset: 0; stroke: #b0b0b0; stroke-width: 0.5"/>
     </g>
     <g id="line2d_42">
      <g>
       <use xlink:href="#m961e2ec3dd" x="529.693759" y="390.04" style="stroke: #000000; stroke-width: 0.8"/>
      </g>
     </g>
     <g id="text_21">
      <!-- 285 -->
      <g transform="translate(520.150009 404.638438) scale(0.1 -0.1)">
       <use xlink:href="#DejaVuSans-32"/>
       <use xlink:href="#DejaVuSans-38" x="63.623047"/>
       <use xlink:href="#DejaVuSans-35" x="127.246094"/>
      </g>
     </g>
    </g>
    <g id="xtick_22">
     <g id="line2d_43">
      <path d="M 553.532569 390.04 
L 553.532569 25.44 
" clip-path="url(#p48507f3b9a)" style="fill: none; stroke-dasharray: 1.85,0.8; stroke-dashoffset: 0; stroke: #b0b0b0; stroke-width: 0.5"/>
     </g>
     <g id="line2d_44">
      <g>
       <use xlink:href="#m961e2ec3dd" x="553.532569" y="390.04" style="stroke: #000000; stroke-width: 0.8"/>
      </g>
     </g>
     <g id="text_22">
      <!-- 300 -->
      <g transform="translate(543.988819 404.638438) scale(0.1 -0.1)">
       <use xlink:href="#DejaVuSans-33"/>
       <use xlink:href="#DejaVuSans-30" x="63.623047"/>
       <use xlink:href="#DejaVuSans-30" x="127.246094"/>
      </g>
     </g>
    </g>
    <g id="xtick_23">
     <g id="line2d_45">
      <path d="M 577.371379 390.04 
L 577.371379 25.44 
" clip-path="url(#p48507f3b9a)" style="fill: none; stroke-dasharray: 1.85,0.8; stroke-dashoffset: 0; stroke: #b0b0b0; stroke-width: 0.5"/>
     </g>
     <g id="line2d_46">
      <g>
       <use xlink:href="#m961e2ec3dd" x="577.371379" y="390.04" style="stroke: #000000; stroke-width: 0.8"/>
      </g>
     </g>
     <g id="text_23">
      <!-- 315 -->
      <g transform="translate(567.827629 404.638438) scale(0.1 -0.1)">
       <use xlink:href="#DejaVuSans-33"/>
       <use xlink:href="#DejaVuSans-31" x="63.623047"/>
       <use xlink:href="#DejaVuSans-35" x="127.246094"/>
      </g>
     </g>
    </g>
    <g id="xtick_24">
     <g id="line2d_47">
      <path d="M 601.210189 390.04 
L 601.210189 25.44 
" clip-path="url(#p48507f3b9a)" style="fill: none; stroke-dasharray: 1.85,0.8; stroke-dashoffset: 0; stroke: #b0b0b0; stroke-width: 0.5"/>
     </g>
     <g id="line2d_48">
      <g>
       <use xlink:href="#m961e2ec3dd" x="601.210189" y="390.04" style="stroke: #000000; stroke-width: 0.8"/>
      </g>
     </g>
     <g id="text_24">
      <!-- 330 -->
      <g transform="translate(591.666439 404.638438) scale(0.1 -0.1)">
       <use xlink:href="#DejaVuSans-33"/>
       <use xlink:href="#DejaVuSans-33" x="63.623047"/>
       <use xlink:href="#DejaVuSans-30" x="127.246094"/>
      </g>
     </g>
    </g>
    <g id="xtick_25">
     <g id="line2d_49">
      <path d="M 625.049 390.04 
L 625.049 25.44 
" clip-path="url(#p48507f3b9a)" style="fill: none; stroke-dasharray: 1.85,0.8; stroke-dashoffset: 0; stroke: #b0b0b0; stroke-width: 0.5"/>
     </g>
     <g id="line2d_50">
      <g>
       <use xlink:href="#m961e2ec3dd" x="625.049" y="390.04" style="stroke: #000000; stroke-width: 0.8"/>
      </g>
     </g>
     <g id="text_25">
      <!-- 345 -->
      <g transform="translate(615.50525 404.638438) scale(0.1 -0.1)">
       <use xlink:href="#DejaVuSans-33"/>
       <use xlink:href="#DejaVuSans-34" x="63.623047"/>
       <use xlink:href="#DejaVuSans-35" x="127.246094"/>
      </g>
     </g>
    </g>
    <g id="xtick_26">
     <g id="line2d_51">
      <path d="M 648.88781 390.04 
L 648.88781 25.44 
" clip-path="url(#p48507f3b9a)" style="fill: none; stroke-dasharray: 1.85,0.8; stroke-dashoffset: 0; stroke: #b0b0b0; stroke-width: 0.5"/>
     </g>
     <g id="line2d_52">
      <g>
       <use xlink:href="#m961e2ec3dd" x="648.88781" y="390.04" style="stroke: #000000; stroke-width: 0.8"/>
      </g>
     </g>
     <g id="text_26">
      <!-- 360 -->
      <g transform="translate(639.34406 404.638438) scale(0.1 -0.1)">
       <use xlink:href="#DejaVuSans-33"/>
       <use xlink:href="#DejaVuSans-36" x="63.623047"/>
       <use xlink:href="#DejaVuSans-30" x="127.246094"/>
      </g>
     </g>
    </g>
    <g id="xtick_27">
     <g id="line2d_53">
      <path d="M 672.72662 390.04 
L 672.72662 25.44 
" clip-path="url(#p48507f3b9a)" style="fill: none; stroke-dasharray: 1.85,0.8; stroke-dashoffset: 0; stroke: #b0b0b0; stroke-width: 0.5"/>
     </g>
     <g id="line2d_54">
      <g>
       <use xlink:href="#m961e2ec3dd" x="672.72662" y="390.04" style="stroke: #000000; stroke-width: 0.8"/>
      </g>
     </g>
     <g id="text_27">
      <!-- 375 -->
      <g transform="translate(663.18287 404.638438) scale(0.1 -0.1)">
       <use xlink:href="#DejaVuSans-33"/>
       <use xlink:href="#DejaVuSans-37" x="63.623047"/>
       <use xlink:href="#DejaVuSans-35" x="127.246094"/>
      </g>
     </g>
    </g>
    <g id="xtick_28">
     <g id="line2d_55">
      <path d="M 696.565431 390.04 
L 696.565431 25.44 
" clip-path="url(#p48507f3b9a)" style="fill: none; stroke-dasharray: 1.85,0.8; stroke-dashoffset: 0; stroke: #b0b0b0; stroke-width: 0.5"/>
     </g>
     <g id="line2d_56">
      <g>
       <use xlink:href="#m961e2ec3dd" x="696.565431" y="390.04" style="stroke: #000000; stroke-width: 0.8"/>
      </g>
     </g>
     <g id="text_28">
      <!-- 390 -->
      <g transform="translate(687.021681 404.638438) scale(0.1 -0.1)">
       <use xlink:href="#DejaVuSans-33"/>
       <use xlink:href="#DejaVuSans-39" x="63.623047"/>
       <use xlink:href="#DejaVuSans-30" x="127.246094"/>
      </g>
     </g>
    </g>
    <g id="text_29">
     <!-- Bet Number -->
     <g transform="translate(347.777812 418.316562) scale(0.1 -0.1)">
      <defs>
       <path id="DejaVuSans-42" d="M 1259 2228 
L 1259 519 
L 2272 519 
Q 2781 519 3026 730 
Q 3272 941 3272 1375 
Q 3272 1813 3026 2020 
Q 2781 2228 2272 2228 
L 1259 2228 
z
M 1259 4147 
L 1259 2741 
L 2194 2741 
Q 2656 2741 2882 2914 
Q 3109 3088 3109 3444 
Q 3109 3797 2882 3972 
Q 2656 4147 2194 4147 
L 1259 4147 
z
M 628 4666 
L 2241 4666 
Q 2963 4666 3353 4366 
Q 3744 4066 3744 3513 
Q 3744 3084 3544 2831 
Q 3344 2578 2956 2516 
Q 3422 2416 3680 2098 
Q 3938 1781 3938 1306 
Q 3938 681 3513 340 
Q 3088 0 2303 0 
L 628 0 
L 628 4666 
z
" transform="scale(0.015625)"/>
       <path id="DejaVuSans-65" d="M 3597 1894 
L 3597 1613 
L 953 1613 
Q 991 1019 1311 708 
Q 1631 397 2203 397 
Q 2534 397 2845 478 
Q 3156 559 3463 722 
L 3463 178 
Q 3153 47 2828 -22 
Q 2503 -91 2169 -91 
Q 1331 -91 842 396 
Q 353 884 353 1716 
Q 353 2575 817 3079 
Q 1281 3584 2069 3584 
Q 2775 3584 3186 3129 
Q 3597 2675 3597 1894 
z
M 3022 2063 
Q 3016 2534 2758 2815 
Q 2500 3097 2075 3097 
Q 1594 3097 1305 2825 
Q 1016 2553 972 2059 
L 3022 2063 
z
" transform="scale(0.015625)"/>
       <path id="DejaVuSans-74" d="M 1172 4494 
L 1172 3500 
L 2356 3500 
L 2356 3053 
L 1172 3053 
L 1172 1153 
Q 1172 725 1289 603 
Q 1406 481 1766 481 
L 2356 481 
L 2356 0 
L 1766 0 
Q 1100 0 847 248 
Q 594 497 594 1153 
L 594 3053 
L 172 3053 
L 172 3500 
L 594 3500 
L 594 4494 
L 1172 4494 
z
" transform="scale(0.015625)"/>
       <path id="DejaVuSans-20" transform="scale(0.015625)"/>
       <path id="DejaVuSans-4e" d="M 628 4666 
L 1478 4666 
L 3547 763 
L 3547 4666 
L 4159 4666 
L 4159 0 
L 3309 0 
L 1241 3903 
L 1241 0 
L 628 0 
L 628 4666 
z
" transform="scale(0.015625)"/>
       <path id="DejaVuSans-75" d="M 544 1381 
L 544 3500 
L 1119 3500 
L 1119 1403 
Q 1119 906 1312 657 
Q 1506 409 1894 409 
Q 2359 409 2629 706 
Q 2900 1003 2900 1516 
L 2900 3500 
L 3475 3500 
L 3475 0 
L 2900 0 
L 2900 538 
Q 2691 219 2414 64 
Q 2138 -91 1772 -91 
Q 1169 -91 856 284 
Q 544 659 544 1381 
z
M 1991 3584 
L 1991 3584 
z
" transform="scale(0.015625)"/>
       <path id="DejaVuSans-6d" d="M 3328 2828 
Q 3544 3216 3844 3400 
Q 4144 3584 4550 3584 
Q 5097 3584 5394 3201 
Q 5691 2819 5691 2113 
L 5691 0 
L 5113 0 
L 5113 2094 
Q 5113 2597 4934 2840 
Q 4756 3084 4391 3084 
Q 3944 3084 3684 2787 
Q 3425 2491 3425 1978 
L 3425 0 
L 2847 0 
L 2847 2094 
Q 2847 2600 2669 2842 
Q 2491 3084 2119 3084 
Q 1678 3084 1418 2786 
Q 1159 2488 1159 1978 
L 1159 0 
L 581 0 
L 581 3500 
L 1159 3500 
L 1159 2956 
Q 1356 3278 1631 3431 
Q 1906 3584 2284 3584 
Q 2666 3584 2933 3390 
Q 3200 3197 3328 2828 
z
" transform="scale(0.015625)"/>
       <path id="DejaVuSans-62" d="M 3116 1747 
Q 3116 2381 2855 2742 
Q 2594 3103 2138 3103 
Q 1681 3103 1420 2742 
Q 1159 2381 1159 1747 
Q 1159 1113 1420 752 
Q 1681 391 2138 391 
Q 2594 391 2855 752 
Q 3116 1113 3116 1747 
z
M 1159 2969 
Q 1341 3281 1617 3432 
Q 1894 3584 2278 3584 
Q 2916 3584 3314 3078 
Q 3713 2572 3713 1747 
Q 3713 922 3314 415 
Q 2916 -91 2278 -91 
Q 1894 -91 1617 61 
Q 1341 213 1159 525 
L 1159 0 
L 581 0 
L 581 4863 
L 1159 4863 
L 1159 2969 
z
" transform="scale(0.015625)"/>
       <path id="DejaVuSans-72" d="M 2631 2963 
Q 2534 3019 2420 3045 
Q 2306 3072 2169 3072 
Q 1681 3072 1420 2755 
Q 1159 2438 1159 1844 
L 1159 0 
L 581 0 
L 581 3500 
L 1159 3500 
L 1159 2956 
Q 1341 3275 1631 3429 
Q 1922 3584 2338 3584 
Q 2397 3584 2469 3576 
Q 2541 3569 2628 3553 
L 2631 2963 
z
" transform="scale(0.015625)"/>
      </defs>
      <use xlink:href="#DejaVuSans-42"/>
      <use xlink:href="#DejaVuSans-65" x="68.603516"/>
      <use xlink:href="#DejaVuSans-74" x="130.126953"/>
      <use xlink:href="#DejaVuSans-20" x="169.335938"/>
      <use xlink:href="#DejaVuSans-4e" x="201.123047"/>
      <use xlink:href="#DejaVuSans-75" x="275.927734"/>
      <use xlink:href="#DejaVuSans-6d" x="339.306641"/>
      <use xlink:href="#DejaVuSans-62" x="436.71875"/>
      <use xlink:href="#DejaVuSans-65" x="500.195312"/>
      <use xlink:href="#DejaVuSans-72" x="561.71875"/>
     </g>
    </g>
   </g>
   <g id="matplotlib.axis_2">
    <g id="ytick_1">
     <g id="line2d_57">
      <path d="M 46.64 384.476786 
L 709.2 384.476786 
" clip-path="url(#p48507f3b9a)" style="fill: none; stroke-dasharray: 1.85,0.8; stroke-dashoffset: 0; stroke: #b0b0b0; stroke-width: 0.5"/>
     </g>
     <g id="line2d_58">
      <defs>
       <path id="m6238ed255a" d="M 0 0 
L -3.5 0 
" style="stroke: #000000; stroke-width: 0.8"/>
      </defs>
      <g>
       <use xlink:href="#m6238ed255a" x="46.64" y="384.476786" style="stroke: #000000; stroke-width: 0.8"/>
      </g>
     </g>
     <g id="text_30">
      <!-- −5 -->
      <g transform="translate(24.897813 388.276005) scale(0.1 -0.1)">
       <use xlink:href="#DejaVuSans-2212"/>
       <use xlink:href="#DejaVuSans-35" x="83.789062"/>
      </g>
     </g>
    </g>
    <g id="ytick_2">
     <g id="line2d_59">
      <path d="M 46.64 335.762126 
L 709.2 335.762126 
" clip-path="url(#p48507f3b9a)" style="fill: none; stroke-dasharray: 1.85,0.8; stroke-dashoffset: 0; stroke: #b0b0b0; stroke-width: 0.5"/>
     </g>
     <g id="line2d_60">
      <g>
       <use xlink:href="#m6238ed255a" x="46.64" y="335.762126" style="stroke: #000000; stroke-width: 0.8"/>
      </g>
     </g>
     <g id="text_31">
      <!-- 0 -->
      <g transform="translate(33.2775 339.561345) scale(0.1 -0.1)">
       <use xlink:href="#DejaVuSans-30"/>
      </g>
     </g>
    </g>
    <g id="ytick_3">
     <g id="line2d_61">
      <path d="M 46.64 287.047466 
L 709.2 287.047466 
" clip-path="url(#p48507f3b9a)" style="fill: none; stroke-dasharray: 1.85,0.8; stroke-dashoffset: 0; stroke: #b0b0b0; stroke-width: 0.5"/>
     </g>
     <g id="line2d_62">
      <g>
       <use xlink:href="#m6238ed255a" x="46.64" y="287.047466" style="stroke: #000000; stroke-width: 0.8"/>
      </g>
     </g>
     <g id="text_32">
      <!-- 5 -->
      <g transform="translate(33.2775 290.846685) scale(0.1 -0.1)">
       <use xlink:href="#DejaVuSans-35"/>
      </g>
     </g>
    </g>
    <g id="ytick_4">
     <g id="line2d_63">
      <path d="M 46.64 238.332806 
L 709.2 238.332806 
" clip-path="url(#p48507f3b9a)" style="fill: none; stroke-dasharray: 1.85,0.8; stroke-dashoffset: 0; stroke: #b0b0b0; stroke-width: 0.5"/>
     </g>
     <g id="line2d_64">
      <g>
       <use xlink:href="#m6238ed255a" x="46.64" y="238.332806" style="stroke: #000000; stroke-width: 0.8"/>
      </g>
     </g>
     <g id="text_33">
      <!-- 10 -->
      <g transform="translate(26.915 242.132025) scale(0.1 -0.1)">
       <use xlink:href="#DejaVuSans-31"/>
       <use xlink:href="#DejaVuSans-30" x="63.623047"/>
      </g>
     </g>
    </g>
    <g id="ytick_5">
     <g id="line2d_65">
      <path d="M 46.64 189.618147 
L 709.2 189.618147 
" clip-path="url(#p48507f3b9a)" style="fill: none; stroke-dasharray: 1.85,0.8; stroke-dashoffset: 0; stroke: #b0b0b0; stroke-width: 0.5"/>
     </g>
     <g id="line2d_66">
      <g>
       <use xlink:href="#m6238ed255a" x="46.64" y="189.618147" style="stroke: #000000; stroke-width: 0.8"/>
      </g>
     </g>
     <g id="text_34">
      <!-- 15 -->
      <g transform="translate(26.915 193.417365) scale(0.1 -0.1)">
       <use xlink:href="#DejaVuSans-31"/>
       <use xlink:href="#DejaVuSans-35" x="63.623047"/>
      </g>
     </g>
    </g>
    <g id="ytick_6">
     <g id="line2d_67">
      <path d="M 46.64 140.903487 
L 709.2 140.903487 
" clip-path="url(#p48507f3b9a)" style="fill: none; stroke-dasharray: 1.85,0.8; stroke-dashoffset: 0; stroke: #b0b0b0; stroke-width: 0.5"/>
     </g>
     <g id="line2d_68">
      <g>
       <use xlink:href="#m6238ed255a" x="46.64" y="140.903487" style="stroke: #000000; stroke-width: 0.8"/>
      </g>
     </g>
     <g id="text_35">
      <!-- 20 -->
      <g transform="translate(26.915 144.702705) scale(0.1 -0.1)">
       <use xlink:href="#DejaVuSans-32"/>
       <use xlink:href="#DejaVuSans-30" x="63.623047"/>
      </g>
     </g>
    </g>
    <g id="ytick_7">
     <g id="line2d_69">
      <path d="M 46.64 92.188827 
L 709.2 92.188827 
" clip-path="url(#p48507f3b9a)" style="fill: none; stroke-dasharray: 1.85,0.8; stroke-dashoffset: 0; stroke: #b0b0b0; stroke-width: 0.5"/>
     </g>
     <g id="line2d_70">
      <g>
       <use xlink:href="#m6238ed255a" x="46.64" y="92.188827" style="stroke: #000000; stroke-width: 0.8"/>
      </g>
     </g>
     <g id="text_36">
      <!-- 25 -->
      <g transform="translate(26.915 95.988046) scale(0.1 -0.1)">
       <use xlink:href="#DejaVuSans-32"/>
       <use xlink:href="#DejaVuSans-35" x="63.623047"/>
      </g>
     </g>
    </g>
    <g id="ytick_8">
     <g id="line2d_71">
      <path d="M 46.64 43.474167 
L 709.2 43.474167 
" clip-path="url(#p48507f3b9a)" style="fill: none; stroke-dasharray: 1.85,0.8; stroke-dashoffset: 0; stroke: #b0b0b0; stroke-width: 0.5"/>
     </g>
     <g id="line2d_72">
      <g>
       <use xlink:href="#m6238ed255a" x="46.64" y="43.474167" style="stroke: #000000; stroke-width: 0.8"/>
      </g>
     </g>
     <g id="text_37">
      <!-- 30 -->
      <g transform="translate(26.915 47.273386) scale(0.1 -0.1)">
       <use xlink:href="#DejaVuSans-33"/>
       <use xlink:href="#DejaVuSans-30" x="63.623047"/>
      </g>
     </g>
    </g>
    <g id="text_38">
     <!-- Cumulative PnL -->
     <g transform="translate(18.818125 246.748594) rotate(-90) scale(0.1 -0.1)">
      <defs>
       <path id="DejaVuSans-43" d="M 4122 4306 
L 4122 3641 
Q 3803 3938 3442 4084 
Q 3081 4231 2675 4231 
Q 1875 4231 1450 3742 
Q 1025 3253 1025 2328 
Q 1025 1406 1450 917 
Q 1875 428 2675 428 
Q 3081 428 3442 575 
Q 3803 722 4122 1019 
L 4122 359 
Q 3791 134 3420 21 
Q 3050 -91 2638 -91 
Q 1578 -91 968 557 
Q 359 1206 359 2328 
Q 359 3453 968 4101 
Q 1578 4750 2638 4750 
Q 3056 4750 3426 4639 
Q 3797 4528 4122 4306 
z
" transform="scale(0.015625)"/>
       <path id="DejaVuSans-6c" d="M 603 4863 
L 1178 4863 
L 1178 0 
L 603 0 
L 603 4863 
z
" transform="scale(0.015625)"/>
       <path id="DejaVuSans-61" d="M 2194 1759 
Q 1497 1759 1228 1600 
Q 959 1441 959 1056 
Q 959 750 1161 570 
Q 1363 391 1709 391 
Q 2188 391 2477 730 
Q 2766 1069 2766 1631 
L 2766 1759 
L 2194 1759 
z
M 3341 1997 
L 3341 0 
L 2766 0 
L 2766 531 
Q 2569 213 2275 61 
Q 1981 -91 1556 -91 
Q 1019 -91 701 211 
Q 384 513 384 1019 
Q 384 1609 779 1909 
Q 1175 2209 1959 2209 
L 2766 2209 
L 2766 2266 
Q 2766 2663 2505 2880 
Q 2244 3097 1772 3097 
Q 1472 3097 1187 3025 
Q 903 2953 641 2809 
L 641 3341 
Q 956 3463 1253 3523 
Q 1550 3584 1831 3584 
Q 2591 3584 2966 3190 
Q 3341 2797 3341 1997 
z
" transform="scale(0.015625)"/>
       <path id="DejaVuSans-69" d="M 603 3500 
L 1178 3500 
L 1178 0 
L 603 0 
L 603 3500 
z
M 603 4863 
L 1178 4863 
L 1178 4134 
L 603 4134 
L 603 4863 
z
" transform="scale(0.015625)"/>
       <path id="DejaVuSans-76" d="M 191 3500 
L 800 3500 
L 1894 563 
L 2988 3500 
L 3597 3500 
L 2284 0 
L 1503 0 
L 191 3500 
z
" transform="scale(0.015625)"/>
       <path id="DejaVuSans-50" d="M 1259 4147 
L 1259 2394 
L 2053 2394 
Q 2494 2394 2734 2622 
Q 2975 2850 2975 3272 
Q 2975 3691 2734 3919 
Q 2494 4147 2053 4147 
L 1259 4147 
z
M 628 4666 
L 2053 4666 
Q 2838 4666 3239 4311 
Q 3641 3956 3641 3272 
Q 3641 2581 3239 2228 
Q 2838 1875 2053 1875 
L 1259 1875 
L 1259 0 
L 628 0 
L 628 4666 
z
" transform="scale(0.015625)"/>
       <path id="DejaVuSans-6e" d="M 3513 2113 
L 3513 0 
L 2938 0 
L 2938 2094 
Q 2938 2591 2744 2837 
Q 2550 3084 2163 3084 
Q 1697 3084 1428 2787 
Q 1159 2491 1159 1978 
L 1159 0 
L 581 0 
L 581 3500 
L 1159 3500 
L 1159 2956 
Q 1366 3272 1645 3428 
Q 1925 3584 2291 3584 
Q 2894 3584 3203 3211 
Q 3513 2838 3513 2113 
z
" transform="scale(0.015625)"/>
       <path id="DejaVuSans-4c" d="M 628 4666 
L 1259 4666 
L 1259 531 
L 3531 531 
L 3531 0 
L 628 0 
L 628 4666 
z
" transform="scale(0.015625)"/>
      </defs>
      <use xlink:href="#DejaVuSans-43"/>
      <use xlink:href="#DejaVuSans-75" x="69.824219"/>
      <use xlink:href="#DejaVuSans-6d" x="133.203125"/>
      <use xlink:href="#DejaVuSans-75" x="230.615234"/>
      <use xlink:href="#DejaVuSans-6c" x="293.994141"/>
      <use xlink:href="#DejaVuSans-61" x="321.777344"/>
      <use xlink:href="#DejaVuSans-74" x="383.056641"/>
      <use xlink:href="#DejaVuSans-69" x="422.265625"/>
      <use xlink:href="#DejaVuSans-76" x="450.048828"/>
      <use xlink:href="#DejaVuSans-65" x="509.228516"/>
      <use xlink:href="#DejaVuSans-20" x="570.751953"/>
      <use xlink:href="#DejaVuSans-50" x="602.539062"/>
      <use xlink:href="#DejaVuSans-6e" x="661.091797"/>
      <use xlink:href="#DejaVuSans-4c" x="724.470703"/>
     </g>
    </g>
   </g>
   <g id="line2d_73">
    <path d="M 76.756364 335.762126 
L 78.345618 323.193744 
L 79.934872 332.936676 
L 81.524126 329.234362 
L 83.11338 338.977294 
L 84.702634 332.839246 
L 89.470396 362.068042 
L 91.05965 353.981409 
L 94.238158 373.467273 
L 95.827412 372.005833 
L 97.416666 341.218168 
L 99.00592 327.96778 
L 103.773682 357.196576 
L 105.362936 354.955702 
L 106.95219 343.556472 
L 108.541444 338.295288 
L 110.130698 328.552356 
L 111.719952 315.301969 
L 113.309206 308.092199 
L 114.89846 299.32356 
L 116.487714 309.066492 
L 118.076968 306.338471 
L 119.666222 304.974461 
L 121.255476 298.154409 
L 122.84473 292.893225 
L 124.433984 286.852608 
L 127.612492 277.012246 
L 129.201746 273.115073 
L 130.791 268.341037 
L 132.380254 278.083969 
L 133.969508 275.843094 
L 135.558762 268.633325 
L 137.148016 263.079854 
L 138.73727 261.131267 
L 140.326524 253.921498 
L 141.915778 263.664429 
L 143.505032 247.588592 
L 145.094286 246.322011 
L 146.68354 256.064943 
L 148.272794 245.152859 
L 149.862048 242.424838 
L 154.629811 224.692702 
L 156.219065 220.60067 
L 159.397573 240.086534 
L 160.986827 237.84566 
L 165.754589 267.074456 
L 167.343843 260.936409 
L 168.933097 246.224581 
L 170.522351 239.989105 
L 175.290113 269.217901 
L 176.879367 252.460058 
L 178.468621 239.014812 
L 180.057875 229.369309 
L 183.236383 248.855173 
L 184.825637 235.507356 
L 186.414891 233.169052 
L 188.004145 242.911984 
L 189.593399 236.38422 
L 191.182653 224.205555 
L 192.771907 220.210953 
L 194.361161 229.953885 
L 195.950415 220.892958 
L 199.128923 240.378822 
L 200.718177 227.615581 
L 202.307431 219.821236 
L 203.896685 206.473419 
L 205.485939 203.550539 
L 207.075193 213.293471 
L 210.253701 207.350283 
L 211.842955 199.263649 
L 213.432209 209.006581 
L 215.021463 207.837429 
L 216.610717 217.580361 
L 218.199971 216.216351 
L 219.789225 225.959283 
L 221.378479 219.723806 
L 222.967733 205.499126 
L 224.556987 203.940257 
L 227.735495 223.42612 
L 229.324749 220.892958 
L 230.914003 219.918665 
L 235.681765 249.147461 
L 237.271019 244.081136 
L 238.860273 253.824068 
L 240.449527 225.179848 
L 242.038781 217.288073 
L 243.628036 212.806325 
L 245.21729 211.052597 
L 246.806544 190.007864 
L 248.395798 179.972644 
L 249.985052 177.342052 
L 251.574306 187.084984 
L 253.16356 183.38267 
L 254.752814 173.737167 
L 256.342068 171.788581 
L 257.931322 181.531513 
L 259.520576 168.963131 
L 261.10983 165.747963 
L 267.466846 204.719691 
L 269.0561 201.504524 
L 270.645354 200.237942 
L 272.234608 197.120204 
L 273.823862 194.684471 
L 275.413116 187.572131 
L 277.00237 183.869817 
L 278.591624 193.612749 
L 280.180878 189.618147 
L 283.359386 209.10401 
L 284.94864 205.791414 
L 286.537894 203.550539 
L 289.716402 223.036403 
L 291.305656 218.846942 
L 294.484164 238.332806 
L 296.073418 235.02021 
L 302.430434 273.991937 
L 304.019688 269.120471 
L 305.608942 262.495278 
L 307.198196 259.474969 
L 308.78745 257.331524 
L 310.376704 248.270597 
L 311.965958 258.013529 
L 313.555212 239.3071 
L 315.144466 249.050032 
L 316.73372 234.240775 
L 318.322974 231.512754 
L 319.912228 218.262367 
L 321.501482 228.005298 
L 323.090736 222.06211 
L 324.67999 216.800927 
L 326.269244 226.543859 
L 327.858498 224.205555 
L 331.037006 243.691419 
L 332.62626 238.137948 
L 334.215515 222.841545 
L 335.804769 213.975476 
L 337.394023 210.273162 
L 338.983277 204.91455 
L 340.572531 189.715576 
L 342.161785 167.59912 
L 343.751039 158.051047 
L 345.340293 156.19989 
L 346.929547 135.447445 
L 350.108055 154.933309 
L 351.697309 148.015827 
L 353.286563 142.559785 
L 354.875817 107.874947 
L 361.232833 146.846675 
L 362.822087 134.570581 
L 364.411341 129.211968 
L 366.000595 94.527131 
L 367.589849 104.270063 
L 369.179103 91.993968 
L 370.768357 90.142811 
L 373.946865 47.273911 
L 377.125373 66.759774 
L 378.714627 51.560801 
L 380.303881 42.012727 
L 383.482389 61.498591 
L 385.071643 54.58111 
L 386.660897 64.324041 
L 388.250151 61.401162 
L 393.017913 90.629958 
L 394.607167 85.661062 
L 396.196421 82.835612 
L 397.785675 82.348466 
L 399.374929 79.133298 
L 400.964183 72.508104 
L 402.553437 68.318644 
L 404.142691 67.539209 
L 405.731945 64.129183 
L 407.321199 46.884193 
L 408.910453 44.44846 
L 410.499707 43.571596 
L 412.088961 53.314528 
L 413.678215 50.781366 
L 416.856723 70.26723 
L 418.445977 63.252319 
L 420.035231 51.365942 
L 421.624485 61.108874 
L 423.21374 60.23201 
L 424.802994 69.974942 
L 426.392248 66.857204 
L 427.981502 54.775968 
L 429.570756 64.5189 
L 431.16001 60.914015 
L 432.749264 59.939722 
L 434.338518 58.185994 
L 435.927772 54.678539 
L 439.10628 74.164403 
L 440.695534 72.410675 
L 442.284788 71.826099 
L 443.874042 81.569031 
L 445.463296 77.184712 
L 447.05255 76.405277 
L 448.641804 69.487795 
L 450.231058 69.000649 
L 451.820312 78.743581 
L 453.409566 73.872115 
L 454.99882 72.215816 
L 456.588074 71.826099 
L 458.177328 81.569031 
L 459.766582 75.430984 
L 462.94509 94.916848 
L 464.534344 75.723272 
L 466.123598 85.466204 
L 467.712852 82.640754 
L 469.302106 77.087282 
L 470.89136 86.830214 
L 472.480614 84.491911 
L 474.069868 80.984455 
L 477.248376 100.470319 
L 478.83763 97.644869 
L 480.426884 95.306565 
L 482.016138 94.332272 
L 486.7839 123.561068 
L 488.373154 118.202455 
L 489.962408 111.869549 
L 493.140916 131.355413 
L 494.73017 128.91968 
L 496.319424 124.243073 
L 497.908678 133.986005 
L 499.497932 133.401429 
L 501.087186 143.144361 
L 502.67644 135.934591 
L 504.265694 145.677523 
L 505.854948 141.390633 
L 507.444202 132.816853 
L 509.033456 131.355413 
L 510.62271 130.38112 
L 512.211964 140.124052 
L 513.801219 134.083434 
L 516.979727 153.569298 
L 518.568981 151.913 
L 520.158235 150.938707 
L 521.747489 160.681639 
L 523.336743 158.927911 
L 524.925997 157.66133 
L 526.515251 167.404262 
L 528.104505 164.968529 
L 529.693759 164.871099 
L 531.283013 164.481382 
L 532.872267 152.692434 
L 534.461521 143.33922 
L 536.050775 138.467754 
L 537.640029 132.621995 
L 539.229283 130.770837 
L 540.818537 115.669293 
L 542.407791 110.018392 
L 543.997045 119.761324 
L 545.586299 113.720707 
L 547.175553 108.264665 
L 548.764807 101.542042 
L 550.354061 111.284974 
L 551.943315 111.187544 
L 556.711077 140.41634 
L 558.300331 138.078036 
L 559.889585 137.59089 
L 561.478839 135.934591 
L 563.068093 130.770837 
L 564.657347 127.165953 
L 566.246601 136.908885 
L 567.835855 136.032021 
L 569.425109 145.774953 
L 571.014363 131.063125 
L 572.603617 140.806057 
L 574.192871 138.370324 
L 575.782125 148.113256 
L 577.371379 147.918398 
L 578.960633 157.66133 
L 580.549887 157.466471 
L 582.139141 167.209403 
L 583.728395 163.896806 
L 586.906903 152.887293 
L 588.496157 152.497576 
L 590.085411 148.015827 
L 591.674665 157.758759 
L 593.263919 153.666728 
L 596.442427 173.152592 
L 598.031681 172.860304 
L 601.210189 192.346167 
L 602.799444 177.342052 
L 604.388698 173.932026 
L 605.977952 167.891408 
L 607.567206 166.722256 
L 609.15646 165.260817 
L 612.334968 184.746681 
L 613.924222 184.649251 
L 617.10273 204.135115 
L 618.691984 203.745398 
L 620.281238 202.868534 
L 621.870492 212.611466 
L 623.459746 212.221749 
L 629.816762 251.193477 
L 631.406016 242.717126 
L 632.99527 241.547974 
L 634.584524 233.46134 
L 636.173778 243.204272 
L 637.763032 241.450545 
L 639.352286 226.933576 
L 640.94154 221.867251 
L 642.530794 231.610183 
L 644.120048 231.610183 
L 645.709302 229.759026 
L 647.298556 229.17445 
L 648.88781 227.128435 
L 650.477064 223.913267 
L 652.066318 219.723806 
L 653.655572 211.832031 
L 655.244826 211.150026 
L 656.83408 220.892958 
L 658.423334 220.405812 
L 660.012588 215.144628 
L 661.601842 210.370592 
L 663.191096 207.642571 
L 664.78035 118.88446 
L 666.369604 118.202455 
L 667.958858 127.945387 
L 669.548112 127.653099 
L 671.137366 118.299885 
L 672.72662 116.15644 
L 674.315874 114.987288 
L 675.905128 112.356696 
L 677.494382 110.018392 
L 679.083636 119.761324 
L 679.083636 119.761324 
" clip-path="url(#p48507f3b9a)" style="fill: none; stroke: #1f77b4; stroke-width: 1.5; stroke-linecap: square"/>
   </g>
   <g id="line2d_74">
    <path d="M 76.756364 335.762126 
L 78.345618 329.47661 
L 79.934872 332.950046 
L 81.524126 332.950046 
L 83.11338 334.576233 
L 84.702634 332.961089 
L 86.291888 337.806705 
L 87.881142 337.843485 
L 89.470396 338.220225 
L 91.05965 334.965404 
L 95.827412 334.965404 
L 97.416666 322.850185 
L 99.00592 318.804023 
L 100.595174 318.938765 
L 102.184428 318.938765 
L 103.773682 321.025746 
L 105.362936 320.0216 
L 106.95219 317.38791 
L 108.541444 316.788506 
L 110.130698 312.803647 
L 111.719952 310.024417 
L 113.309206 309.280408 
L 114.89846 308.799399 
L 116.487714 315.388822 
L 118.076968 315.388822 
L 119.666222 314.744542 
L 121.255476 311.873105 
L 126.023238 311.873105 
L 127.612492 310.189214 
L 130.791 310.189214 
L 132.380254 316.712107 
L 133.969508 316.712107 
L 135.558762 314.594929 
L 137.148016 312.923685 
L 138.73727 312.923685 
L 140.326524 312.718772 
L 141.915778 319.589274 
L 143.505032 312.753974 
L 146.68354 312.753974 
L 148.272794 308.938954 
L 149.862048 308.155155 
L 151.451302 305.21429 
L 154.629811 305.21429 
L 156.219065 304.92549 
L 157.808319 307.516619 
L 159.397573 311.88876 
L 162.576081 311.88876 
L 164.165335 315.592535 
L 165.754589 317.975091 
L 167.343843 317.975091 
L 168.933097 314.700755 
L 175.290113 314.700755 
L 176.879367 309.208391 
L 178.468621 306.891152 
L 180.057875 303.418926 
L 181.647129 303.418926 
L 183.236383 304.085343 
L 184.825637 301.938848 
L 186.414891 301.938848 
L 188.004145 303.530143 
L 189.593399 303.530143 
L 191.182653 301.562557 
L 192.771907 301.562557 
L 194.361161 305.140145 
L 195.950415 304.008805 
L 197.539669 307.122117 
L 199.128923 307.122117 
L 200.718177 303.991518 
L 202.307431 303.991518 
L 203.896685 293.710152 
L 205.485939 293.710152 
L 207.075193 294.395469 
L 210.253701 294.395469 
L 211.842955 292.513524 
L 213.432209 296.083078 
L 219.789225 296.083078 
L 221.378479 295.138053 
L 222.967733 290.440498 
L 226.146241 290.440498 
L 227.735495 293.164287 
L 230.914003 293.164287 
L 232.503257 296.191091 
L 234.092511 297.718397 
L 235.681765 300.470729 
L 238.860273 300.470729 
L 240.449527 289.914535 
L 242.038781 289.699148 
L 245.21729 289.699148 
L 246.806544 283.414022 
L 248.395798 280.750119 
L 251.574306 280.750119 
L 253.16356 280.456175 
L 254.752814 279.300868 
L 256.342068 279.300868 
L 257.931322 280.853056 
L 259.520576 279.431406 
L 261.10983 277.738816 
L 262.699084 279.775151 
L 267.466846 279.775151 
L 269.0561 278.383188 
L 277.00237 278.383188 
L 278.591624 283.87002 
L 280.180878 283.87002 
L 281.770132 291.51944 
L 283.359386 293.162981 
L 284.94864 291.163771 
L 286.537894 291.163771 
L 288.127148 296.555392 
L 289.716402 300.882515 
L 291.305656 300.578799 
L 292.89491 301.931639 
L 294.484164 305.556226 
L 296.073418 305.556226 
L 297.662672 306.257209 
L 299.251926 310.008434 
L 300.84118 315.746098 
L 302.430434 316.25474 
L 304.019688 316.25474 
L 305.608942 314.150423 
L 308.78745 314.150423 
L 310.376704 311.275966 
L 311.965958 315.600259 
L 313.555212 302.555252 
L 315.144466 306.443868 
L 316.73372 303.859146 
L 318.322974 303.859146 
L 319.912228 296.474354 
L 323.090736 296.565691 
L 324.67999 296.565691 
L 326.269244 298.024348 
L 327.858498 298.024348 
L 329.447752 304.799774 
L 331.037006 304.946351 
L 332.62626 303.581035 
L 334.215515 300.771748 
L 335.804769 299.794035 
L 337.394023 299.014718 
L 338.983277 296.685475 
L 340.572531 292.850033 
L 342.161785 285.102162 
L 343.751039 279.771102 
L 345.340293 279.771102 
L 346.929547 271.451622 
L 348.518801 271.548298 
L 350.108055 276.033683 
L 351.697309 272.381642 
L 353.286563 268.430299 
L 354.875817 250.028238 
L 356.465071 252.976958 
L 358.054325 253.076579 
L 359.643579 258.834441 
L 361.232833 260.35987 
L 362.822087 254.053134 
L 364.411341 251.986658 
L 366.000595 232.633843 
L 367.589849 238.681438 
L 369.179103 232.898754 
L 370.768357 232.898754 
L 373.946865 218.232271 
L 375.536119 220.980625 
L 377.125373 221.038595 
L 378.714627 217.350311 
L 380.303881 212.204445 
L 381.893135 213.404271 
L 383.482389 216.197942 
L 385.071643 212.219357 
L 386.660897 216.597474 
L 388.250151 215.542802 
L 389.839405 218.372421 
L 391.428659 218.606251 
L 393.017913 221.426608 
L 394.607167 221.426608 
L 396.196421 221.254343 
L 404.142691 221.254343 
L 405.731945 220.357847 
L 407.321199 209.546778 
L 410.499707 209.546778 
L 412.088961 214.681997 
L 413.678215 214.681997 
L 415.267469 219.014776 
L 416.856723 222.075993 
L 418.445977 220.798968 
L 420.035231 217.733023 
L 421.624485 223.35145 
L 424.802994 223.35145 
L 426.392248 222.35315 
L 427.981502 219.56028 
L 429.570756 221.606162 
L 435.927772 221.606162 
L 437.517026 226.900888 
L 442.284788 226.900888 
L 443.874042 234.684422 
L 445.463296 233.920917 
L 450.231058 233.920917 
L 451.820312 235.22533 
L 453.409566 234.749875 
L 458.177328 234.749875 
L 459.766582 231.618097 
L 461.355836 236.252614 
L 462.94509 242.394512 
L 464.534344 228.415294 
L 466.123598 230.767799 
L 467.712852 230.767799 
L 469.302106 228.148178 
L 470.89136 229.452682 
L 472.480614 229.452682 
L 474.069868 229.120019 
L 475.659122 231.273768 
L 477.248376 237.258359 
L 485.194646 237.258359 
L 486.7839 240.922501 
L 488.373154 238.196088 
L 489.962408 237.095867 
L 491.551662 237.925155 
L 493.140916 241.399762 
L 496.319424 241.399762 
L 497.908678 243.57515 
L 499.497932 243.57515 
L 501.087186 248.990773 
L 502.67644 247.992473 
L 504.265694 247.992473 
L 505.854948 246.145369 
L 507.444202 244.975204 
L 510.62271 244.975204 
L 512.211964 247.441246 
L 513.801219 247.441246 
L 515.390473 250.542832 
L 520.158235 250.542832 
L 521.747489 253.279808 
L 531.283013 253.279808 
L 532.872267 248.275556 
L 534.461521 247.517517 
L 539.229283 247.517517 
L 540.818537 243.007173 
L 542.407791 243.007173 
L 543.997045 248.34218 
L 545.586299 248.34218 
L 547.175553 247.930678 
L 548.764807 247.930678 
L 550.354061 251.600429 
L 553.532569 251.600429 
L 555.121823 252.929515 
L 563.068093 252.929515 
L 564.657347 252.060932 
L 566.246601 256.93169 
L 567.835855 256.93169 
L 569.425109 260.208341 
L 571.014363 256.21259 
L 574.192871 256.21259 
L 575.782125 261.255225 
L 577.371379 261.255225 
L 578.960633 267.663861 
L 580.549887 267.663861 
L 582.139141 268.355789 
L 583.728395 268.355789 
L 585.317649 267.048599 
L 586.906903 266.904599 
L 588.496157 266.904599 
L 590.085411 266.617708 
L 591.674665 266.617708 
L 593.263919 265.312038 
L 594.853173 272.28357 
L 596.442427 275.858606 
L 598.031681 275.858606 
L 599.620935 280.640989 
L 601.210189 280.640989 
L 602.799444 275.491148 
L 604.388698 275.491148 
L 605.977952 272.832945 
L 609.15646 272.832945 
L 610.745714 277.613421 
L 613.924222 277.613421 
L 615.513476 279.405944 
L 621.870492 279.331352 
L 623.459746 279.150368 
L 625.049 279.150368 
L 628.227508 290.605763 
L 629.816762 293.546996 
L 632.99527 293.546996 
L 634.584524 292.674205 
L 636.173778 298.22123 
L 637.763032 297.997708 
L 639.352286 295.074546 
L 640.94154 294.422861 
L 647.298556 294.422861 
L 648.88781 292.849582 
L 650.477064 292.286937 
L 652.066318 291.476082 
L 653.655572 288.067049 
L 655.244826 288.067049 
L 656.83408 290.790256 
L 661.601842 290.790256 
L 663.191096 288.430128 
L 664.78035 246.499413 
L 666.369604 246.499413 
L 667.958858 251.514696 
L 669.548112 251.514696 
L 671.137366 251.001087 
L 679.083636 251.001087 
L 679.083636 251.001087 
" clip-path="url(#p48507f3b9a)" style="fill: none; stroke: #ff7f0e; stroke-width: 1.5; stroke-linecap: square"/>
   </g>
   <g id="patch_3">
    <path d="M 46.64 390.04 
L 46.64 25.44 
" style="fill: none; stroke: #000000; stroke-width: 0.8; stroke-linejoin: miter; stroke-linecap: square"/>
   </g>
   <g id="patch_4">
    <path d="M 709.2 390.04 
L 709.2 25.44 
" style="fill: none; stroke: #000000; stroke-width: 0.8; stroke-linejoin: miter; stroke-linecap: square"/>
   </g>
   <g id="patch_5">
    <path d="M 46.64 390.04 
L 709.2 390.04 
" style="fill: none; stroke: #000000; stroke-width: 0.8; stroke-linejoin: miter; stroke-linecap: square"/>
   </g>
   <g id="patch_6">
    <path d="M 46.64 25.44 
L 709.2 25.44 
" style="fill: none; stroke: #000000; stroke-width: 0.8; stroke-linejoin: miter; stroke-linecap: square"/>
   </g>
   <g id="text_39">
    <!-- Cumulative PnL over Time (model_prob) -->
    <g transform="translate(257.341562 19.44) scale(0.12 -0.12)">
     <defs>
      <path id="DejaVuSans-6f" d="M 1959 3097 
Q 1497 3097 1228 2736 
Q 959 2375 959 1747 
Q 959 1119 1226 758 
Q 1494 397 1959 397 
Q 2419 397 2687 759 
Q 2956 1122 2956 1747 
Q 2956 2369 2687 2733 
Q 2419 3097 1959 3097 
z
M 1959 3584 
Q 2709 3584 3137 3096 
Q 3566 2609 3566 1747 
Q 3566 888 3137 398 
Q 2709 -91 1959 -91 
Q 1206 -91 779 398 
Q 353 888 353 1747 
Q 353 2609 779 3096 
Q 1206 3584 1959 3584 
z
" transform="scale(0.015625)"/>
      <path id="DejaVuSans-54" d="M -19 4666 
L 3928 4666 
L 3928 4134 
L 2272 4134 
L 2272 0 
L 1638 0 
L 1638 4134 
L -19 4134 
L -19 4666 
z
" transform="scale(0.015625)"/>
      <path id="DejaVuSans-28" d="M 1984 4856 
Q 1566 4138 1362 3434 
Q 1159 2731 1159 2009 
Q 1159 1288 1364 580 
Q 1569 -128 1984 -844 
L 1484 -844 
Q 1016 -109 783 600 
Q 550 1309 550 2009 
Q 550 2706 781 3412 
Q 1013 4119 1484 4856 
L 1984 4856 
z
" transform="scale(0.015625)"/>
      <path id="DejaVuSans-64" d="M 2906 2969 
L 2906 4863 
L 3481 4863 
L 3481 0 
L 2906 0 
L 2906 525 
Q 2725 213 2448 61 
Q 2172 -91 1784 -91 
Q 1150 -91 751 415 
Q 353 922 353 1747 
Q 353 2572 751 3078 
Q 1150 3584 1784 3584 
Q 2172 3584 2448 3432 
Q 2725 3281 2906 2969 
z
M 947 1747 
Q 947 1113 1208 752 
Q 1469 391 1925 391 
Q 2381 391 2643 752 
Q 2906 1113 2906 1747 
Q 2906 2381 2643 2742 
Q 2381 3103 1925 3103 
Q 1469 3103 1208 2742 
Q 947 2381 947 1747 
z
" transform="scale(0.015625)"/>
      <path id="DejaVuSans-5f" d="M 3263 -1063 
L 3263 -1509 
L -63 -1509 
L -63 -1063 
L 3263 -1063 
z
" transform="scale(0.015625)"/>
      <path id="DejaVuSans-70" d="M 1159 525 
L 1159 -1331 
L 581 -1331 
L 581 3500 
L 1159 3500 
L 1159 2969 
Q 1341 3281 1617 3432 
Q 1894 3584 2278 3584 
Q 2916 3584 3314 3078 
Q 3713 2572 3713 1747 
Q 3713 922 3314 415 
Q 2916 -91 2278 -91 
Q 1894 -91 1617 61 
Q 1341 213 1159 525 
z
M 3116 1747 
Q 3116 2381 2855 2742 
Q 2594 3103 2138 3103 
Q 1681 3103 1420 2742 
Q 1159 2381 1159 1747 
Q 1159 1113 1420 752 
Q 1681 391 2138 391 
Q 2594 391 2855 752 
Q 3116 1113 3116 1747 
z
" transform="scale(0.015625)"/>
      <path id="DejaVuSans-29" d="M 513 4856 
L 1013 4856 
Q 1481 4119 1714 3412 
Q 1947 2706 1947 2009 
Q 1947 1309 1714 600 
Q 1481 -109 1013 -844 
L 513 -844 
Q 928 -128 1133 580 
Q 1338 1288 1338 2009 
Q 1338 2731 1133 3434 
Q 928 4138 513 4856 
z
" transform="scale(0.015625)"/>
     </defs>
     <use xlink:href="#DejaVuSans-43"/>
     <use xlink:href="#DejaVuSans-75" x="69.824219"/>
     <use xlink:href="#DejaVuSans-6d" x="133.203125"/>
     <use xlink:href="#DejaVuSans-75" x="230.615234"/>
     <use xlink:href="#DejaVuSans-6c" x="293.994141"/>
     <use xlink:href="#DejaVuSans-61" x="321.777344"/>
     <use xlink:href="#DejaVuSans-74" x="383.056641"/>
     <use xlink:href="#DejaVuSans-69" x="422.265625"/>
     <use xlink:href="#DejaVuSans-76" x="450.048828"/>
     <use xlink:href="#DejaVuSans-65" x="509.228516"/>
     <use xlink:href="#DejaVuSans-20" x="570.751953"/>
     <use xlink:href="#DejaVuSans-50" x="602.539062"/>
     <use xlink:href="#DejaVuSans-6e" x="661.091797"/>
     <use xlink:href="#DejaVuSans-4c" x="724.470703"/>
     <use xlink:href="#DejaVuSans-20" x="780.183594"/>
     <use xlink:href="#DejaVuSans-6f" x="811.970703"/>
     <use xlink:href="#DejaVuSans-76" x="873.152344"/>
     <use xlink:href="#DejaVuSans-65" x="932.332031"/>
     <use xlink:href="#DejaVuSans-72" x="993.855469"/>
     <use xlink:href="#DejaVuSans-20" x="1034.96875"/>
     <use xlink:href="#DejaVuSans-54" x="1066.755859"/>
     <use xlink:href="#DejaVuSans-69" x="1124.714844"/>
     <use xlink:href="#DejaVuSans-6d" x="1152.498047"/>
     <use xlink:href="#DejaVuSans-65" x="1249.910156"/>
     <use xlink:href="#DejaVuSans-20" x="1311.433594"/>
     <use xlink:href="#DejaVuSans-28" x="1343.220703"/>
     <use xlink:href="#DejaVuSans-6d" x="1382.234375"/>
     <use xlink:href="#DejaVuSans-6f" x="1479.646484"/>
     <use xlink:href="#DejaVuSans-64" x="1540.828125"/>
     <use xlink:href="#DejaVuSans-65" x="1604.304688"/>
     <use xlink:href="#DejaVuSans-6c" x="1665.828125"/>
     <use xlink:href="#DejaVuSans-5f" x="1693.611328"/>
     <use xlink:href="#DejaVuSans-70" x="1743.611328"/>
     <use xlink:href="#DejaVuSans-72" x="1807.087891"/>
     <use xlink:href="#DejaVuSans-6f" x="1845.951172"/>
     <use xlink:href="#DejaVuSans-62" x="1907.132812"/>
     <use xlink:href="#DejaVuSans-29" x="1970.609375"/>
    </g>
   </g>
   <g id="legend_1">
    <g id="patch_7">
     <path d="M 538.96875 63.3525 
L 702.2 63.3525 
Q 704.2 63.3525 704.2 61.3525 
L 704.2 32.44 
Q 704.2 30.44 702.2 30.44 
L 538.96875 30.44 
Q 536.96875 30.44 536.96875 32.44 
L 536.96875 61.3525 
Q 536.96875 63.3525 538.96875 63.3525 
z
" style="fill: #ffffff; opacity: 0.8; stroke: #cccccc; stroke-linejoin: miter"/>
    </g>
    <g id="line2d_75">
     <path d="M 540.96875 38.538438 
L 550.96875 38.538438 
L 560.96875 38.538438 
" style="fill: none; stroke: #1f77b4; stroke-width: 1.5; stroke-linecap: square"/>
    </g>
    <g id="text_40">
     <!-- Unit Bet PnL (model_prob) -->
     <g transform="translate(568.96875 42.038438) scale(0.1 -0.1)">
      <defs>
       <path id="DejaVuSans-55" d="M 556 4666 
L 1191 4666 
L 1191 1831 
Q 1191 1081 1462 751 
Q 1734 422 2344 422 
Q 2950 422 3222 751 
Q 3494 1081 3494 1831 
L 3494 4666 
L 4128 4666 
L 4128 1753 
Q 4128 841 3676 375 
Q 3225 -91 2344 -91 
Q 1459 -91 1007 375 
Q 556 841 556 1753 
L 556 4666 
z
" transform="scale(0.015625)"/>
      </defs>
      <use xlink:href="#DejaVuSans-55"/>
      <use xlink:href="#DejaVuSans-6e" x="73.193359"/>
      <use xlink:href="#DejaVuSans-69" x="136.572266"/>
      <use xlink:href="#DejaVuSans-74" x="164.355469"/>
      <use xlink:href="#DejaVuSans-20" x="203.564453"/>
      <use xlink:href="#DejaVuSans-42" x="235.351562"/>
      <use xlink:href="#DejaVuSans-65" x="303.955078"/>
      <use xlink:href="#DejaVuSans-74" x="365.478516"/>
      <use xlink:href="#DejaVuSans-20" x="404.6875"/>
      <use xlink:href="#DejaVuSans-50" x="436.474609"/>
      <use xlink:href="#DejaVuSans-6e" x="495.027344"/>
      <use xlink:href="#DejaVuSans-4c" x="558.40625"/>
      <use xlink:href="#DejaVuSans-20" x="614.119141"/>
      <use xlink:href="#DejaVuSans-28" x="645.90625"/>
      <use xlink:href="#DejaVuSans-6d" x="684.919922"/>
      <use xlink:href="#DejaVuSans-6f" x="782.332031"/>
      <use xlink:href="#DejaVuSans-64" x="843.513672"/>
      <use xlink:href="#DejaVuSans-65" x="906.990234"/>
      <use xlink:href="#DejaVuSans-6c" x="968.513672"/>
      <use xlink:href="#DejaVuSans-5f" x="996.296875"/>
      <use xlink:href="#DejaVuSans-70" x="1046.296875"/>
      <use xlink:href="#DejaVuSans-72" x="1109.773438"/>
      <use xlink:href="#DejaVuSans-6f" x="1148.636719"/>
      <use xlink:href="#DejaVuSans-62" x="1209.818359"/>
      <use xlink:href="#DejaVuSans-29" x="1273.294922"/>
     </g>
    </g>
    <g id="line2d_76">
     <path d="M 540.96875 53.494688 
L 550.96875 53.494688 
L 560.96875 53.494688 
" style="fill: none; stroke: #ff7f0e; stroke-width: 1.5; stroke-linecap: square"/>
    </g>
    <g id="text_41">
     <!-- Kelly PnL (model_prob) -->
     <g transform="translate(568.96875 56.994688) scale(0.1 -0.1)">
      <defs>
       <path id="DejaVuSans-4b" d="M 628 4666 
L 1259 4666 
L 1259 2694 
L 3353 4666 
L 4166 4666 
L 1850 2491 
L 4331 0 
L 3500 0 
L 1259 2247 
L 1259 0 
L 628 0 
L 628 4666 
z
" transform="scale(0.015625)"/>
       <path id="DejaVuSans-79" d="M 2059 -325 
Q 1816 -950 1584 -1140 
Q 1353 -1331 966 -1331 
L 506 -1331 
L 506 -850 
L 844 -850 
Q 1081 -850 1212 -737 
Q 1344 -625 1503 -206 
L 1606 56 
L 191 3500 
L 800 3500 
L 1894 763 
L 2988 3500 
L 3597 3500 
L 2059 -325 
z
" transform="scale(0.015625)"/>
      </defs>
      <use xlink:href="#DejaVuSans-4b"/>
      <use xlink:href="#DejaVuSans-65" x="60.576172"/>
      <use xlink:href="#DejaVuSans-6c" x="122.099609"/>
      <use xlink:href="#DejaVuSans-6c" x="149.882812"/>
      <use xlink:href="#DejaVuSans-79" x="177.666016"/>
      <use xlink:href="#DejaVuSans-20" x="236.845703"/>
      <use xlink:href="#DejaVuSans-50" x="268.632812"/>
      <use xlink:href="#DejaVuSans-6e" x="327.185547"/>
      <use xlink:href="#DejaVuSans-4c" x="390.564453"/>
      <use xlink:href="#DejaVuSans-20" x="446.277344"/>
      <use xlink:href="#DejaVuSans-28" x="478.064453"/>
      <use xlink:href="#DejaVuSans-6d" x="517.078125"/>
      <use xlink:href="#DejaVuSans-6f" x="614.490234"/>
      <use xlink:href="#DejaVuSans-64" x="675.671875"/>
      <use xlink:href="#DejaVuSans-65" x="739.148438"/>
      <use xlink:href="#DejaVuSans-6c" x="800.671875"/>
      <use xlink:href="#DejaVuSans-5f" x="828.455078"/>
      <use xlink:href="#DejaVuSans-70" x="878.455078"/>
      <use xlink:href="#DejaVuSans-72" x="941.931641"/>
      <use xlink:href="#DejaVuSans-6f" x="980.794922"/>
      <use xlink:href="#DejaVuSans-62" x="1041.976562"/>
      <use xlink:href="#DejaVuSans-29" x="1105.453125"/>
     </g>
    </g>
   </g>
  </g>
 </g>
 <defs>
  <clipPath id="p48507f3b9a">
   <rect x="46.64" y="25.44" width="662.56" height="364.6"/>
  </clipPath>
 </defs>
</svg>
