<?xml version="1.0" encoding="utf-8" standalone="no"?>
<!DOCTYPE svg PUBLIC "-//W3C//DTD SVG 1.1//EN"
  "http://www.w3.org/Graphics/SVG/1.1/DTD/svg11.dtd">
<svg xmlns:xlink="http://www.w3.org/1999/xlink" width="720pt" height="432pt" viewBox="0 0 720 432" xmlns="http://www.w3.org/2000/svg" version="1.1">
 <metadata>
  <rdf:RDF xmlns:dc="http://purl.org/dc/elements/1.1/" xmlns:cc="http://creativecommons.org/ns#" xmlns:rdf="http://www.w3.org/1999/02/22-rdf-syntax-ns#">
   <cc:Work>
    <dc:type rdf:resource="http://purl.org/dc/dcmitype/StillImage"/>
    <dc:date>2025-05-19T09:24:48.579210</dc:date>
    <dc:format>image/svg+xml</dc:format>
    <dc:creator>
     <cc:Agent>
      <dc:title>Matplotlib v3.7.0, https://matplotlib.org/</dc:title>
     </cc:Agent>
    </dc:creator>
   </cc:Work>
  </rdf:RDF>
 </metadata>
 <defs>
  <style type="text/css">*{stroke-linejoin: round; stroke-linecap: butt}</style>
 </defs>
 <g id="figure_1">
  <g id="patch_1">
   <path d="M 0 432 
L 720 432 
L 720 0 
L 0 0 
z
" style="fill: #ffffff"/>
  </g>
  <g id="axes_1">
   <g id="patch_2">
    <path d="M 46.64 390.04 
L 709.2 390.04 
L 709.2 25.44 
L 46.64 25.44 
z
" style="fill: #ffffff"/>
   </g>
   <g id="matplotlib.axis_1">
    <g id="xtick_1">
     <g id="line2d_1">
      <path d="M 53.227955 390.04 
L 53.227955 25.44 
" clip-path="url(#p5e97e169d5)" style="fill: none; stroke-dasharray: 1.85,0.8; stroke-dashoffset: 0; stroke: #b0b0b0; stroke-width: 0.5"/>
     </g>
     <g id="line2d_2">
      <defs>
       <path id="me679bc3629" d="M 0 0 
L 0 3.5 
" style="stroke: #000000; stroke-width: 0.8"/>
      </defs>
      <g>
       <use xlink:href="#me679bc3629" x="53.227955" y="390.04" style="stroke: #000000; stroke-width: 0.8"/>
      </g>
     </g>
     <g id="text_1">
      <!-- −10 -->
      <g transform="translate(42.675611 404.638438) scale(0.1 -0.1)">
       <defs>
        <path id="DejaVuSans-2212" d="M 678 2272 
L 4684 2272 
L 4684 1741 
L 678 1741 
L 678 2272 
z
" transform="scale(0.015625)"/>
        <path id="DejaVuSans-31" d="M 794 531 
L 1825 531 
L 1825 4091 
L 703 3866 
L 703 4441 
L 1819 4666 
L 2450 4666 
L 2450 531 
L 3481 531 
L 3481 0 
L 794 0 
L 794 531 
z
" transform="scale(0.015625)"/>
        <path id="DejaVuSans-30" d="M 2034 4250 
Q 1547 4250 1301 3770 
Q 1056 3291 1056 2328 
Q 1056 1369 1301 889 
Q 1547 409 2034 409 
Q 2525 409 2770 889 
Q 3016 1369 3016 2328 
Q 3016 3291 2770 3770 
Q 2525 4250 2034 4250 
z
M 2034 4750 
Q 2819 4750 3233 4129 
Q 3647 3509 3647 2328 
Q 3647 1150 3233 529 
Q 2819 -91 2034 -91 
Q 1250 -91 836 529 
Q 422 1150 422 2328 
Q 422 3509 836 4129 
Q 1250 4750 2034 4750 
z
" transform="scale(0.015625)"/>
       </defs>
       <use xlink:href="#DejaVuSans-2212"/>
       <use xlink:href="#DejaVuSans-31" x="83.789062"/>
       <use xlink:href="#DejaVuSans-30" x="147.412109"/>
      </g>
     </g>
    </g>
    <g id="xtick_2">
     <g id="line2d_3">
      <path d="M 76.756364 390.04 
L 76.756364 25.44 
" clip-path="url(#p5e97e169d5)" style="fill: none; stroke-dasharray: 1.85,0.8; stroke-dashoffset: 0; stroke: #b0b0b0; stroke-width: 0.5"/>
     </g>
     <g id="line2d_4">
      <g>
       <use xlink:href="#me679bc3629" x="76.756364" y="390.04" style="stroke: #000000; stroke-width: 0.8"/>
      </g>
     </g>
     <g id="text_2">
      <!-- 0 -->
      <g transform="translate(73.575114 404.638438) scale(0.1 -0.1)">
       <use xlink:href="#DejaVuSans-30"/>
      </g>
     </g>
    </g>
    <g id="xtick_3">
     <g id="line2d_5">
      <path d="M 100.284773 390.04 
L 100.284773 25.44 
" clip-path="url(#p5e97e169d5)" style="fill: none; stroke-dasharray: 1.85,0.8; stroke-dashoffset: 0; stroke: #b0b0b0; stroke-width: 0.5"/>
     </g>
     <g id="line2d_6">
      <g>
       <use xlink:href="#me679bc3629" x="100.284773" y="390.04" style="stroke: #000000; stroke-width: 0.8"/>
      </g>
     </g>
     <g id="text_3">
      <!-- 10 -->
      <g transform="translate(93.922273 404.638438) scale(0.1 -0.1)">
       <use xlink:href="#DejaVuSans-31"/>
       <use xlink:href="#DejaVuSans-30" x="63.623047"/>
      </g>
     </g>
    </g>
    <g id="xtick_4">
     <g id="line2d_7">
      <path d="M 123.813182 390.04 
L 123.813182 25.44 
" clip-path="url(#p5e97e169d5)" style="fill: none; stroke-dasharray: 1.85,0.8; stroke-dashoffset: 0; stroke: #b0b0b0; stroke-width: 0.5"/>
     </g>
     <g id="line2d_8">
      <g>
       <use xlink:href="#me679bc3629" x="123.813182" y="390.04" style="stroke: #000000; stroke-width: 0.8"/>
      </g>
     </g>
     <g id="text_4">
      <!-- 20 -->
      <g transform="translate(117.450682 404.638438) scale(0.1 -0.1)">
       <defs>
        <path id="DejaVuSans-32" d="M 1228 531 
L 3431 531 
L 3431 0 
L 469 0 
L 469 531 
Q 828 903 1448 1529 
Q 2069 2156 2228 2338 
Q 2531 2678 2651 2914 
Q 2772 3150 2772 3378 
Q 2772 3750 2511 3984 
Q 2250 4219 1831 4219 
Q 1534 4219 1204 4116 
Q 875 4013 500 3803 
L 500 4441 
Q 881 4594 1212 4672 
Q 1544 4750 1819 4750 
Q 2544 4750 2975 4387 
Q 3406 4025 3406 3419 
Q 3406 3131 3298 2873 
Q 3191 2616 2906 2266 
Q 2828 2175 2409 1742 
Q 1991 1309 1228 531 
z
" transform="scale(0.015625)"/>
       </defs>
       <use xlink:href="#DejaVuSans-32"/>
       <use xlink:href="#DejaVuSans-30" x="63.623047"/>
      </g>
     </g>
    </g>
    <g id="xtick_5">
     <g id="line2d_9">
      <path d="M 147.341591 390.04 
L 147.341591 25.44 
" clip-path="url(#p5e97e169d5)" style="fill: none; stroke-dasharray: 1.85,0.8; stroke-dashoffset: 0; stroke: #b0b0b0; stroke-width: 0.5"/>
     </g>
     <g id="line2d_10">
      <g>
       <use xlink:href="#me679bc3629" x="147.341591" y="390.04" style="stroke: #000000; stroke-width: 0.8"/>
      </g>
     </g>
     <g id="text_5">
      <!-- 30 -->
      <g transform="translate(140.979091 404.638438) scale(0.1 -0.1)">
       <defs>
        <path id="DejaVuSans-33" d="M 2597 2516 
Q 3050 2419 3304 2112 
Q 3559 1806 3559 1356 
Q 3559 666 3084 287 
Q 2609 -91 1734 -91 
Q 1441 -91 1130 -33 
Q 819 25 488 141 
L 488 750 
Q 750 597 1062 519 
Q 1375 441 1716 441 
Q 2309 441 2620 675 
Q 2931 909 2931 1356 
Q 2931 1769 2642 2001 
Q 2353 2234 1838 2234 
L 1294 2234 
L 1294 2753 
L 1863 2753 
Q 2328 2753 2575 2939 
Q 2822 3125 2822 3475 
Q 2822 3834 2567 4026 
Q 2313 4219 1838 4219 
Q 1578 4219 1281 4162 
Q 984 4106 628 3988 
L 628 4550 
Q 988 4650 1302 4700 
Q 1616 4750 1894 4750 
Q 2613 4750 3031 4423 
Q 3450 4097 3450 3541 
Q 3450 3153 3228 2886 
Q 3006 2619 2597 2516 
z
" transform="scale(0.015625)"/>
       </defs>
       <use xlink:href="#DejaVuSans-33"/>
       <use xlink:href="#DejaVuSans-30" x="63.623047"/>
      </g>
     </g>
    </g>
    <g id="xtick_6">
     <g id="line2d_11">
      <path d="M 170.87 390.04 
L 170.87 25.44 
" clip-path="url(#p5e97e169d5)" style="fill: none; stroke-dasharray: 1.85,0.8; stroke-dashoffset: 0; stroke: #b0b0b0; stroke-width: 0.5"/>
     </g>
     <g id="line2d_12">
      <g>
       <use xlink:href="#me679bc3629" x="170.87" y="390.04" style="stroke: #000000; stroke-width: 0.8"/>
      </g>
     </g>
     <g id="text_6">
      <!-- 40 -->
      <g transform="translate(164.5075 404.638438) scale(0.1 -0.1)">
       <defs>
        <path id="DejaVuSans-34" d="M 2419 4116 
L 825 1625 
L 2419 1625 
L 2419 4116 
z
M 2253 4666 
L 3047 4666 
L 3047 1625 
L 3713 1625 
L 3713 1100 
L 3047 1100 
L 3047 0 
L 2419 0 
L 2419 1100 
L 313 1100 
L 313 1709 
L 2253 4666 
z
" transform="scale(0.015625)"/>
       </defs>
       <use xlink:href="#DejaVuSans-34"/>
       <use xlink:href="#DejaVuSans-30" x="63.623047"/>
      </g>
     </g>
    </g>
    <g id="xtick_7">
     <g id="line2d_13">
      <path d="M 194.398409 390.04 
L 194.398409 25.44 
" clip-path="url(#p5e97e169d5)" style="fill: none; stroke-dasharray: 1.85,0.8; stroke-dashoffset: 0; stroke: #b0b0b0; stroke-width: 0.5"/>
     </g>
     <g id="line2d_14">
      <g>
       <use xlink:href="#me679bc3629" x="194.398409" y="390.04" style="stroke: #000000; stroke-width: 0.8"/>
      </g>
     </g>
     <g id="text_7">
      <!-- 50 -->
      <g transform="translate(188.035909 404.638438) scale(0.1 -0.1)">
       <defs>
        <path id="DejaVuSans-35" d="M 691 4666 
L 3169 4666 
L 3169 4134 
L 1269 4134 
L 1269 2991 
Q 1406 3038 1543 3061 
Q 1681 3084 1819 3084 
Q 2600 3084 3056 2656 
Q 3513 2228 3513 1497 
Q 3513 744 3044 326 
Q 2575 -91 1722 -91 
Q 1428 -91 1123 -41 
Q 819 9 494 109 
L 494 744 
Q 775 591 1075 516 
Q 1375 441 1709 441 
Q 2250 441 2565 725 
Q 2881 1009 2881 1497 
Q 2881 1984 2565 2268 
Q 2250 2553 1709 2553 
Q 1456 2553 1204 2497 
Q 953 2441 691 2322 
L 691 4666 
z
" transform="scale(0.015625)"/>
       </defs>
       <use xlink:href="#DejaVuSans-35"/>
       <use xlink:href="#DejaVuSans-30" x="63.623047"/>
      </g>
     </g>
    </g>
    <g id="xtick_8">
     <g id="line2d_15">
      <path d="M 217.926818 390.04 
L 217.926818 25.44 
" clip-path="url(#p5e97e169d5)" style="fill: none; stroke-dasharray: 1.85,0.8; stroke-dashoffset: 0; stroke: #b0b0b0; stroke-width: 0.5"/>
     </g>
     <g id="line2d_16">
      <g>
       <use xlink:href="#me679bc3629" x="217.926818" y="390.04" style="stroke: #000000; stroke-width: 0.8"/>
      </g>
     </g>
     <g id="text_8">
      <!-- 60 -->
      <g transform="translate(211.564318 404.638438) scale(0.1 -0.1)">
       <defs>
        <path id="DejaVuSans-36" d="M 2113 2584 
Q 1688 2584 1439 2293 
Q 1191 2003 1191 1497 
Q 1191 994 1439 701 
Q 1688 409 2113 409 
Q 2538 409 2786 701 
Q 3034 994 3034 1497 
Q 3034 2003 2786 2293 
Q 2538 2584 2113 2584 
z
M 3366 4563 
L 3366 3988 
Q 3128 4100 2886 4159 
Q 2644 4219 2406 4219 
Q 1781 4219 1451 3797 
Q 1122 3375 1075 2522 
Q 1259 2794 1537 2939 
Q 1816 3084 2150 3084 
Q 2853 3084 3261 2657 
Q 3669 2231 3669 1497 
Q 3669 778 3244 343 
Q 2819 -91 2113 -91 
Q 1303 -91 875 529 
Q 447 1150 447 2328 
Q 447 3434 972 4092 
Q 1497 4750 2381 4750 
Q 2619 4750 2861 4703 
Q 3103 4656 3366 4563 
z
" transform="scale(0.015625)"/>
       </defs>
       <use xlink:href="#DejaVuSans-36"/>
       <use xlink:href="#DejaVuSans-30" x="63.623047"/>
      </g>
     </g>
    </g>
    <g id="xtick_9">
     <g id="line2d_17">
      <path d="M 241.455227 390.04 
L 241.455227 25.44 
" clip-path="url(#p5e97e169d5)" style="fill: none; stroke-dasharray: 1.85,0.8; stroke-dashoffset: 0; stroke: #b0b0b0; stroke-width: 0.5"/>
     </g>
     <g id="line2d_18">
      <g>
       <use xlink:href="#me679bc3629" x="241.455227" y="390.04" style="stroke: #000000; stroke-width: 0.8"/>
      </g>
     </g>
     <g id="text_9">
      <!-- 70 -->
      <g transform="translate(235.092727 404.638438) scale(0.1 -0.1)">
       <defs>
        <path id="DejaVuSans-37" d="M 525 4666 
L 3525 4666 
L 3525 4397 
L 1831 0 
L 1172 0 
L 2766 4134 
L 525 4134 
L 525 4666 
z
" transform="scale(0.015625)"/>
       </defs>
       <use xlink:href="#DejaVuSans-37"/>
       <use xlink:href="#DejaVuSans-30" x="63.623047"/>
      </g>
     </g>
    </g>
    <g id="xtick_10">
     <g id="line2d_19">
      <path d="M 264.983636 390.04 
L 264.983636 25.44 
" clip-path="url(#p5e97e169d5)" style="fill: none; stroke-dasharray: 1.85,0.8; stroke-dashoffset: 0; stroke: #b0b0b0; stroke-width: 0.5"/>
     </g>
     <g id="line2d_20">
      <g>
       <use xlink:href="#me679bc3629" x="264.983636" y="390.04" style="stroke: #000000; stroke-width: 0.8"/>
      </g>
     </g>
     <g id="text_10">
      <!-- 80 -->
      <g transform="translate(258.621136 404.638438) scale(0.1 -0.1)">
       <defs>
        <path id="DejaVuSans-38" d="M 2034 2216 
Q 1584 2216 1326 1975 
Q 1069 1734 1069 1313 
Q 1069 891 1326 650 
Q 1584 409 2034 409 
Q 2484 409 2743 651 
Q 3003 894 3003 1313 
Q 3003 1734 2745 1975 
Q 2488 2216 2034 2216 
z
M 1403 2484 
Q 997 2584 770 2862 
Q 544 3141 544 3541 
Q 544 4100 942 4425 
Q 1341 4750 2034 4750 
Q 2731 4750 3128 4425 
Q 3525 4100 3525 3541 
Q 3525 3141 3298 2862 
Q 3072 2584 2669 2484 
Q 3125 2378 3379 2068 
Q 3634 1759 3634 1313 
Q 3634 634 3220 271 
Q 2806 -91 2034 -91 
Q 1263 -91 848 271 
Q 434 634 434 1313 
Q 434 1759 690 2068 
Q 947 2378 1403 2484 
z
M 1172 3481 
Q 1172 3119 1398 2916 
Q 1625 2713 2034 2713 
Q 2441 2713 2670 2916 
Q 2900 3119 2900 3481 
Q 2900 3844 2670 4047 
Q 2441 4250 2034 4250 
Q 1625 4250 1398 4047 
Q 1172 3844 1172 3481 
z
" transform="scale(0.015625)"/>
       </defs>
       <use xlink:href="#DejaVuSans-38"/>
       <use xlink:href="#DejaVuSans-30" x="63.623047"/>
      </g>
     </g>
    </g>
    <g id="xtick_11">
     <g id="line2d_21">
      <path d="M 288.512045 390.04 
L 288.512045 25.44 
" clip-path="url(#p5e97e169d5)" style="fill: none; stroke-dasharray: 1.85,0.8; stroke-dashoffset: 0; stroke: #b0b0b0; stroke-width: 0.5"/>
     </g>
     <g id="line2d_22">
      <g>
       <use xlink:href="#me679bc3629" x="288.512045" y="390.04" style="stroke: #000000; stroke-width: 0.8"/>
      </g>
     </g>
     <g id="text_11">
      <!-- 90 -->
      <g transform="translate(282.149545 404.638438) scale(0.1 -0.1)">
       <defs>
        <path id="DejaVuSans-39" d="M 703 97 
L 703 672 
Q 941 559 1184 500 
Q 1428 441 1663 441 
Q 2288 441 2617 861 
Q 2947 1281 2994 2138 
Q 2813 1869 2534 1725 
Q 2256 1581 1919 1581 
Q 1219 1581 811 2004 
Q 403 2428 403 3163 
Q 403 3881 828 4315 
Q 1253 4750 1959 4750 
Q 2769 4750 3195 4129 
Q 3622 3509 3622 2328 
Q 3622 1225 3098 567 
Q 2575 -91 1691 -91 
Q 1453 -91 1209 -44 
Q 966 3 703 97 
z
M 1959 2075 
Q 2384 2075 2632 2365 
Q 2881 2656 2881 3163 
Q 2881 3666 2632 3958 
Q 2384 4250 1959 4250 
Q 1534 4250 1286 3958 
Q 1038 3666 1038 3163 
Q 1038 2656 1286 2365 
Q 1534 2075 1959 2075 
z
" transform="scale(0.015625)"/>
       </defs>
       <use xlink:href="#DejaVuSans-39"/>
       <use xlink:href="#DejaVuSans-30" x="63.623047"/>
      </g>
     </g>
    </g>
    <g id="xtick_12">
     <g id="line2d_23">
      <path d="M 312.040455 390.04 
L 312.040455 25.44 
" clip-path="url(#p5e97e169d5)" style="fill: none; stroke-dasharray: 1.85,0.8; stroke-dashoffset: 0; stroke: #b0b0b0; stroke-width: 0.5"/>
     </g>
     <g id="line2d_24">
      <g>
       <use xlink:href="#me679bc3629" x="312.040455" y="390.04" style="stroke: #000000; stroke-width: 0.8"/>
      </g>
     </g>
     <g id="text_12">
      <!-- 100 -->
      <g transform="translate(302.496705 404.638438) scale(0.1 -0.1)">
       <use xlink:href="#DejaVuSans-31"/>
       <use xlink:href="#DejaVuSans-30" x="63.623047"/>
       <use xlink:href="#DejaVuSans-30" x="127.246094"/>
      </g>
     </g>
    </g>
    <g id="xtick_13">
     <g id="line2d_25">
      <path d="M 335.568864 390.04 
L 335.568864 25.44 
" clip-path="url(#p5e97e169d5)" style="fill: none; stroke-dasharray: 1.85,0.8; stroke-dashoffset: 0; stroke: #b0b0b0; stroke-width: 0.5"/>
     </g>
     <g id="line2d_26">
      <g>
       <use xlink:href="#me679bc3629" x="335.568864" y="390.04" style="stroke: #000000; stroke-width: 0.8"/>
      </g>
     </g>
     <g id="text_13">
      <!-- 110 -->
      <g transform="translate(326.025114 404.638438) scale(0.1 -0.1)">
       <use xlink:href="#DejaVuSans-31"/>
       <use xlink:href="#DejaVuSans-31" x="63.623047"/>
       <use xlink:href="#DejaVuSans-30" x="127.246094"/>
      </g>
     </g>
    </g>
    <g id="xtick_14">
     <g id="line2d_27">
      <path d="M 359.097273 390.04 
L 359.097273 25.44 
" clip-path="url(#p5e97e169d5)" style="fill: none; stroke-dasharray: 1.85,0.8; stroke-dashoffset: 0; stroke: #b0b0b0; stroke-width: 0.5"/>
     </g>
     <g id="line2d_28">
      <g>
       <use xlink:href="#me679bc3629" x="359.097273" y="390.04" style="stroke: #000000; stroke-width: 0.8"/>
      </g>
     </g>
     <g id="text_14">
      <!-- 120 -->
      <g transform="translate(349.553523 404.638438) scale(0.1 -0.1)">
       <use xlink:href="#DejaVuSans-31"/>
       <use xlink:href="#DejaVuSans-32" x="63.623047"/>
       <use xlink:href="#DejaVuSans-30" x="127.246094"/>
      </g>
     </g>
    </g>
    <g id="xtick_15">
     <g id="line2d_29">
      <path d="M 382.625682 390.04 
L 382.625682 25.44 
" clip-path="url(#p5e97e169d5)" style="fill: none; stroke-dasharray: 1.85,0.8; stroke-dashoffset: 0; stroke: #b0b0b0; stroke-width: 0.5"/>
     </g>
     <g id="line2d_30">
      <g>
       <use xlink:href="#me679bc3629" x="382.625682" y="390.04" style="stroke: #000000; stroke-width: 0.8"/>
      </g>
     </g>
     <g id="text_15">
      <!-- 130 -->
      <g transform="translate(373.081932 404.638438) scale(0.1 -0.1)">
       <use xlink:href="#DejaVuSans-31"/>
       <use xlink:href="#DejaVuSans-33" x="63.623047"/>
       <use xlink:href="#DejaVuSans-30" x="127.246094"/>
      </g>
     </g>
    </g>
    <g id="xtick_16">
     <g id="line2d_31">
      <path d="M 406.154091 390.04 
L 406.154091 25.44 
" clip-path="url(#p5e97e169d5)" style="fill: none; stroke-dasharray: 1.85,0.8; stroke-dashoffset: 0; stroke: #b0b0b0; stroke-width: 0.5"/>
     </g>
     <g id="line2d_32">
      <g>
       <use xlink:href="#me679bc3629" x="406.154091" y="390.04" style="stroke: #000000; stroke-width: 0.8"/>
      </g>
     </g>
     <g id="text_16">
      <!-- 140 -->
      <g transform="translate(396.610341 404.638438) scale(0.1 -0.1)">
       <use xlink:href="#DejaVuSans-31"/>
       <use xlink:href="#DejaVuSans-34" x="63.623047"/>
       <use xlink:href="#DejaVuSans-30" x="127.246094"/>
      </g>
     </g>
    </g>
    <g id="xtick_17">
     <g id="line2d_33">
      <path d="M 429.6825 390.04 
L 429.6825 25.44 
" clip-path="url(#p5e97e169d5)" style="fill: none; stroke-dasharray: 1.85,0.8; stroke-dashoffset: 0; stroke: #b0b0b0; stroke-width: 0.5"/>
     </g>
     <g id="line2d_34">
      <g>
       <use xlink:href="#me679bc3629" x="429.6825" y="390.04" style="stroke: #000000; stroke-width: 0.8"/>
      </g>
     </g>
     <g id="text_17">
      <!-- 150 -->
      <g transform="translate(420.13875 404.638438) scale(0.1 -0.1)">
       <use xlink:href="#DejaVuSans-31"/>
       <use xlink:href="#DejaVuSans-35" x="63.623047"/>
       <use xlink:href="#DejaVuSans-30" x="127.246094"/>
      </g>
     </g>
    </g>
    <g id="xtick_18">
     <g id="line2d_35">
      <path d="M 453.210909 390.04 
L 453.210909 25.44 
" clip-path="url(#p5e97e169d5)" style="fill: none; stroke-dasharray: 1.85,0.8; stroke-dashoffset: 0; stroke: #b0b0b0; stroke-width: 0.5"/>
     </g>
     <g id="line2d_36">
      <g>
       <use xlink:href="#me679bc3629" x="453.210909" y="390.04" style="stroke: #000000; stroke-width: 0.8"/>
      </g>
     </g>
     <g id="text_18">
      <!-- 160 -->
      <g transform="translate(443.667159 404.638438) scale(0.1 -0.1)">
       <use xlink:href="#DejaVuSans-31"/>
       <use xlink:href="#DejaVuSans-36" x="63.623047"/>
       <use xlink:href="#DejaVuSans-30" x="127.246094"/>
      </g>
     </g>
    </g>
    <g id="xtick_19">
     <g id="line2d_37">
      <path d="M 476.739318 390.04 
L 476.739318 25.44 
" clip-path="url(#p5e97e169d5)" style="fill: none; stroke-dasharray: 1.85,0.8; stroke-dashoffset: 0; stroke: #b0b0b0; stroke-width: 0.5"/>
     </g>
     <g id="line2d_38">
      <g>
       <use xlink:href="#me679bc3629" x="476.739318" y="390.04" style="stroke: #000000; stroke-width: 0.8"/>
      </g>
     </g>
     <g id="text_19">
      <!-- 170 -->
      <g transform="translate(467.195568 404.638438) scale(0.1 -0.1)">
       <use xlink:href="#DejaVuSans-31"/>
       <use xlink:href="#DejaVuSans-37" x="63.623047"/>
       <use xlink:href="#DejaVuSans-30" x="127.246094"/>
      </g>
     </g>
    </g>
    <g id="xtick_20">
     <g id="line2d_39">
      <path d="M 500.267727 390.04 
L 500.267727 25.44 
" clip-path="url(#p5e97e169d5)" style="fill: none; stroke-dasharray: 1.85,0.8; stroke-dashoffset: 0; stroke: #b0b0b0; stroke-width: 0.5"/>
     </g>
     <g id="line2d_40">
      <g>
       <use xlink:href="#me679bc3629" x="500.267727" y="390.04" style="stroke: #000000; stroke-width: 0.8"/>
      </g>
     </g>
     <g id="text_20">
      <!-- 180 -->
      <g transform="translate(490.723977 404.638438) scale(0.1 -0.1)">
       <use xlink:href="#DejaVuSans-31"/>
       <use xlink:href="#DejaVuSans-38" x="63.623047"/>
       <use xlink:href="#DejaVuSans-30" x="127.246094"/>
      </g>
     </g>
    </g>
    <g id="xtick_21">
     <g id="line2d_41">
      <path d="M 523.796136 390.04 
L 523.796136 25.44 
" clip-path="url(#p5e97e169d5)" style="fill: none; stroke-dasharray: 1.85,0.8; stroke-dashoffset: 0; stroke: #b0b0b0; stroke-width: 0.5"/>
     </g>
     <g id="line2d_42">
      <g>
       <use xlink:href="#me679bc3629" x="523.796136" y="390.04" style="stroke: #000000; stroke-width: 0.8"/>
      </g>
     </g>
     <g id="text_21">
      <!-- 190 -->
      <g transform="translate(514.252386 404.638438) scale(0.1 -0.1)">
       <use xlink:href="#DejaVuSans-31"/>
       <use xlink:href="#DejaVuSans-39" x="63.623047"/>
       <use xlink:href="#DejaVuSans-30" x="127.246094"/>
      </g>
     </g>
    </g>
    <g id="xtick_22">
     <g id="line2d_43">
      <path d="M 547.324545 390.04 
L 547.324545 25.44 
" clip-path="url(#p5e97e169d5)" style="fill: none; stroke-dasharray: 1.85,0.8; stroke-dashoffset: 0; stroke: #b0b0b0; stroke-width: 0.5"/>
     </g>
     <g id="line2d_44">
      <g>
       <use xlink:href="#me679bc3629" x="547.324545" y="390.04" style="stroke: #000000; stroke-width: 0.8"/>
      </g>
     </g>
     <g id="text_22">
      <!-- 200 -->
      <g transform="translate(537.780795 404.638438) scale(0.1 -0.1)">
       <use xlink:href="#DejaVuSans-32"/>
       <use xlink:href="#DejaVuSans-30" x="63.623047"/>
       <use xlink:href="#DejaVuSans-30" x="127.246094"/>
      </g>
     </g>
    </g>
    <g id="xtick_23">
     <g id="line2d_45">
      <path d="M 570.852955 390.04 
L 570.852955 25.44 
" clip-path="url(#p5e97e169d5)" style="fill: none; stroke-dasharray: 1.85,0.8; stroke-dashoffset: 0; stroke: #b0b0b0; stroke-width: 0.5"/>
     </g>
     <g id="line2d_46">
      <g>
       <use xlink:href="#me679bc3629" x="570.852955" y="390.04" style="stroke: #000000; stroke-width: 0.8"/>
      </g>
     </g>
     <g id="text_23">
      <!-- 210 -->
      <g transform="translate(561.309205 404.638438) scale(0.1 -0.1)">
       <use xlink:href="#DejaVuSans-32"/>
       <use xlink:href="#DejaVuSans-31" x="63.623047"/>
       <use xlink:href="#DejaVuSans-30" x="127.246094"/>
      </g>
     </g>
    </g>
    <g id="xtick_24">
     <g id="line2d_47">
      <path d="M 594.381364 390.04 
L 594.381364 25.44 
" clip-path="url(#p5e97e169d5)" style="fill: none; stroke-dasharray: 1.85,0.8; stroke-dashoffset: 0; stroke: #b0b0b0; stroke-width: 0.5"/>
     </g>
     <g id="line2d_48">
      <g>
       <use xlink:href="#me679bc3629" x="594.381364" y="390.04" style="stroke: #000000; stroke-width: 0.8"/>
      </g>
     </g>
     <g id="text_24">
      <!-- 220 -->
      <g transform="translate(584.837614 404.638438) scale(0.1 -0.1)">
       <use xlink:href="#DejaVuSans-32"/>
       <use xlink:href="#DejaVuSans-32" x="63.623047"/>
       <use xlink:href="#DejaVuSans-30" x="127.246094"/>
      </g>
     </g>
    </g>
    <g id="xtick_25">
     <g id="line2d_49">
      <path d="M 617.909773 390.04 
L 617.909773 25.44 
" clip-path="url(#p5e97e169d5)" style="fill: none; stroke-dasharray: 1.85,0.8; stroke-dashoffset: 0; stroke: #b0b0b0; stroke-width: 0.5"/>
     </g>
     <g id="line2d_50">
      <g>
       <use xlink:href="#me679bc3629" x="617.909773" y="390.04" style="stroke: #000000; stroke-width: 0.8"/>
      </g>
     </g>
     <g id="text_25">
      <!-- 230 -->
      <g transform="translate(608.366023 404.638438) scale(0.1 -0.1)">
       <use xlink:href="#DejaVuSans-32"/>
       <use xlink:href="#DejaVuSans-33" x="63.623047"/>
       <use xlink:href="#DejaVuSans-30" x="127.246094"/>
      </g>
     </g>
    </g>
    <g id="xtick_26">
     <g id="line2d_51">
      <path d="M 641.438182 390.04 
L 641.438182 25.44 
" clip-path="url(#p5e97e169d5)" style="fill: none; stroke-dasharray: 1.85,0.8; stroke-dashoffset: 0; stroke: #b0b0b0; stroke-width: 0.5"/>
     </g>
     <g id="line2d_52">
      <g>
       <use xlink:href="#me679bc3629" x="641.438182" y="390.04" style="stroke: #000000; stroke-width: 0.8"/>
      </g>
     </g>
     <g id="text_26">
      <!-- 240 -->
      <g transform="translate(631.894432 404.638438) scale(0.1 -0.1)">
       <use xlink:href="#DejaVuSans-32"/>
       <use xlink:href="#DejaVuSans-34" x="63.623047"/>
       <use xlink:href="#DejaVuSans-30" x="127.246094"/>
      </g>
     </g>
    </g>
    <g id="xtick_27">
     <g id="line2d_53">
      <path d="M 664.966591 390.04 
L 664.966591 25.44 
" clip-path="url(#p5e97e169d5)" style="fill: none; stroke-dasharray: 1.85,0.8; stroke-dashoffset: 0; stroke: #b0b0b0; stroke-width: 0.5"/>
     </g>
     <g id="line2d_54">
      <g>
       <use xlink:href="#me679bc3629" x="664.966591" y="390.04" style="stroke: #000000; stroke-width: 0.8"/>
      </g>
     </g>
     <g id="text_27">
      <!-- 250 -->
      <g transform="translate(655.422841 404.638438) scale(0.1 -0.1)">
       <use xlink:href="#DejaVuSans-32"/>
       <use xlink:href="#DejaVuSans-35" x="63.623047"/>
       <use xlink:href="#DejaVuSans-30" x="127.246094"/>
      </g>
     </g>
    </g>
    <g id="xtick_28">
     <g id="line2d_55">
      <path d="M 688.495 390.04 
L 688.495 25.44 
" clip-path="url(#p5e97e169d5)" style="fill: none; stroke-dasharray: 1.85,0.8; stroke-dashoffset: 0; stroke: #b0b0b0; stroke-width: 0.5"/>
     </g>
     <g id="line2d_56">
      <g>
       <use xlink:href="#me679bc3629" x="688.495" y="390.04" style="stroke: #000000; stroke-width: 0.8"/>
      </g>
     </g>
     <g id="text_28">
      <!-- 260 -->
      <g transform="translate(678.95125 404.638438) scale(0.1 -0.1)">
       <use xlink:href="#DejaVuSans-32"/>
       <use xlink:href="#DejaVuSans-36" x="63.623047"/>
       <use xlink:href="#DejaVuSans-30" x="127.246094"/>
      </g>
     </g>
    </g>
    <g id="text_29">
     <!-- Bet Number -->
     <g transform="translate(347.777813 418.316562) scale(0.1 -0.1)">
      <defs>
       <path id="DejaVuSans-42" d="M 1259 2228 
L 1259 519 
L 2272 519 
Q 2781 519 3026 730 
Q 3272 941 3272 1375 
Q 3272 1813 3026 2020 
Q 2781 2228 2272 2228 
L 1259 2228 
z
M 1259 4147 
L 1259 2741 
L 2194 2741 
Q 2656 2741 2882 2914 
Q 3109 3088 3109 3444 
Q 3109 3797 2882 3972 
Q 2656 4147 2194 4147 
L 1259 4147 
z
M 628 4666 
L 2241 4666 
Q 2963 4666 3353 4366 
Q 3744 4066 3744 3513 
Q 3744 3084 3544 2831 
Q 3344 2578 2956 2516 
Q 3422 2416 3680 2098 
Q 3938 1781 3938 1306 
Q 3938 681 3513 340 
Q 3088 0 2303 0 
L 628 0 
L 628 4666 
z
" transform="scale(0.015625)"/>
       <path id="DejaVuSans-65" d="M 3597 1894 
L 3597 1613 
L 953 1613 
Q 991 1019 1311 708 
Q 1631 397 2203 397 
Q 2534 397 2845 478 
Q 3156 559 3463 722 
L 3463 178 
Q 3153 47 2828 -22 
Q 2503 -91 2169 -91 
Q 1331 -91 842 396 
Q 353 884 353 1716 
Q 353 2575 817 3079 
Q 1281 3584 2069 3584 
Q 2775 3584 3186 3129 
Q 3597 2675 3597 1894 
z
M 3022 2063 
Q 3016 2534 2758 2815 
Q 2500 3097 2075 3097 
Q 1594 3097 1305 2825 
Q 1016 2553 972 2059 
L 3022 2063 
z
" transform="scale(0.015625)"/>
       <path id="DejaVuSans-74" d="M 1172 4494 
L 1172 3500 
L 2356 3500 
L 2356 3053 
L 1172 3053 
L 1172 1153 
Q 1172 725 1289 603 
Q 1406 481 1766 481 
L 2356 481 
L 2356 0 
L 1766 0 
Q 1100 0 847 248 
Q 594 497 594 1153 
L 594 3053 
L 172 3053 
L 172 3500 
L 594 3500 
L 594 4494 
L 1172 4494 
z
" transform="scale(0.015625)"/>
       <path id="DejaVuSans-20" transform="scale(0.015625)"/>
       <path id="DejaVuSans-4e" d="M 628 4666 
L 1478 4666 
L 3547 763 
L 3547 4666 
L 4159 4666 
L 4159 0 
L 3309 0 
L 1241 3903 
L 1241 0 
L 628 0 
L 628 4666 
z
" transform="scale(0.015625)"/>
       <path id="DejaVuSans-75" d="M 544 1381 
L 544 3500 
L 1119 3500 
L 1119 1403 
Q 1119 906 1312 657 
Q 1506 409 1894 409 
Q 2359 409 2629 706 
Q 2900 1003 2900 1516 
L 2900 3500 
L 3475 3500 
L 3475 0 
L 2900 0 
L 2900 538 
Q 2691 219 2414 64 
Q 2138 -91 1772 -91 
Q 1169 -91 856 284 
Q 544 659 544 1381 
z
M 1991 3584 
L 1991 3584 
z
" transform="scale(0.015625)"/>
       <path id="DejaVuSans-6d" d="M 3328 2828 
Q 3544 3216 3844 3400 
Q 4144 3584 4550 3584 
Q 5097 3584 5394 3201 
Q 5691 2819 5691 2113 
L 5691 0 
L 5113 0 
L 5113 2094 
Q 5113 2597 4934 2840 
Q 4756 3084 4391 3084 
Q 3944 3084 3684 2787 
Q 3425 2491 3425 1978 
L 3425 0 
L 2847 0 
L 2847 2094 
Q 2847 2600 2669 2842 
Q 2491 3084 2119 3084 
Q 1678 3084 1418 2786 
Q 1159 2488 1159 1978 
L 1159 0 
L 581 0 
L 581 3500 
L 1159 3500 
L 1159 2956 
Q 1356 3278 1631 3431 
Q 1906 3584 2284 3584 
Q 2666 3584 2933 3390 
Q 3200 3197 3328 2828 
z
" transform="scale(0.015625)"/>
       <path id="DejaVuSans-62" d="M 3116 1747 
Q 3116 2381 2855 2742 
Q 2594 3103 2138 3103 
Q 1681 3103 1420 2742 
Q 1159 2381 1159 1747 
Q 1159 1113 1420 752 
Q 1681 391 2138 391 
Q 2594 391 2855 752 
Q 3116 1113 3116 1747 
z
M 1159 2969 
Q 1341 3281 1617 3432 
Q 1894 3584 2278 3584 
Q 2916 3584 3314 3078 
Q 3713 2572 3713 1747 
Q 3713 922 3314 415 
Q 2916 -91 2278 -91 
Q 1894 -91 1617 61 
Q 1341 213 1159 525 
L 1159 0 
L 581 0 
L 581 4863 
L 1159 4863 
L 1159 2969 
z
" transform="scale(0.015625)"/>
       <path id="DejaVuSans-72" d="M 2631 2963 
Q 2534 3019 2420 3045 
Q 2306 3072 2169 3072 
Q 1681 3072 1420 2755 
Q 1159 2438 1159 1844 
L 1159 0 
L 581 0 
L 581 3500 
L 1159 3500 
L 1159 2956 
Q 1341 3275 1631 3429 
Q 1922 3584 2338 3584 
Q 2397 3584 2469 3576 
Q 2541 3569 2628 3553 
L 2631 2963 
z
" transform="scale(0.015625)"/>
      </defs>
      <use xlink:href="#DejaVuSans-42"/>
      <use xlink:href="#DejaVuSans-65" x="68.603516"/>
      <use xlink:href="#DejaVuSans-74" x="130.126953"/>
      <use xlink:href="#DejaVuSans-20" x="169.335938"/>
      <use xlink:href="#DejaVuSans-4e" x="201.123047"/>
      <use xlink:href="#DejaVuSans-75" x="275.927734"/>
      <use xlink:href="#DejaVuSans-6d" x="339.306641"/>
      <use xlink:href="#DejaVuSans-62" x="436.71875"/>
      <use xlink:href="#DejaVuSans-65" x="500.195312"/>
      <use xlink:href="#DejaVuSans-72" x="561.71875"/>
     </g>
    </g>
   </g>
   <g id="matplotlib.axis_2">
    <g id="ytick_1">
     <g id="line2d_57">
      <path d="M 46.64 387.088692 
L 709.2 387.088692 
" clip-path="url(#p5e97e169d5)" style="fill: none; stroke-dasharray: 1.85,0.8; stroke-dashoffset: 0; stroke: #b0b0b0; stroke-width: 0.5"/>
     </g>
     <g id="line2d_58">
      <defs>
       <path id="m22269e969f" d="M 0 0 
L -3.5 0 
" style="stroke: #000000; stroke-width: 0.8"/>
      </defs>
      <g>
       <use xlink:href="#m22269e969f" x="46.64" y="387.088692" style="stroke: #000000; stroke-width: 0.8"/>
      </g>
     </g>
     <g id="text_30">
      <!-- −5 -->
      <g transform="translate(24.897813 390.887911) scale(0.1 -0.1)">
       <use xlink:href="#DejaVuSans-2212"/>
       <use xlink:href="#DejaVuSans-35" x="83.789062"/>
      </g>
     </g>
    </g>
    <g id="ytick_2">
     <g id="line2d_59">
      <path d="M 46.64 336.63899 
L 709.2 336.63899 
" clip-path="url(#p5e97e169d5)" style="fill: none; stroke-dasharray: 1.85,0.8; stroke-dashoffset: 0; stroke: #b0b0b0; stroke-width: 0.5"/>
     </g>
     <g id="line2d_60">
      <g>
       <use xlink:href="#m22269e969f" x="46.64" y="336.63899" style="stroke: #000000; stroke-width: 0.8"/>
      </g>
     </g>
     <g id="text_31">
      <!-- 0 -->
      <g transform="translate(33.2775 340.438209) scale(0.1 -0.1)">
       <use xlink:href="#DejaVuSans-30"/>
      </g>
     </g>
    </g>
    <g id="ytick_3">
     <g id="line2d_61">
      <path d="M 46.64 286.189287 
L 709.2 286.189287 
" clip-path="url(#p5e97e169d5)" style="fill: none; stroke-dasharray: 1.85,0.8; stroke-dashoffset: 0; stroke: #b0b0b0; stroke-width: 0.5"/>
     </g>
     <g id="line2d_62">
      <g>
       <use xlink:href="#m22269e969f" x="46.64" y="286.189287" style="stroke: #000000; stroke-width: 0.8"/>
      </g>
     </g>
     <g id="text_32">
      <!-- 5 -->
      <g transform="translate(33.2775 289.988506) scale(0.1 -0.1)">
       <use xlink:href="#DejaVuSans-35"/>
      </g>
     </g>
    </g>
    <g id="ytick_4">
     <g id="line2d_63">
      <path d="M 46.64 235.739585 
L 709.2 235.739585 
" clip-path="url(#p5e97e169d5)" style="fill: none; stroke-dasharray: 1.85,0.8; stroke-dashoffset: 0; stroke: #b0b0b0; stroke-width: 0.5"/>
     </g>
     <g id="line2d_64">
      <g>
       <use xlink:href="#m22269e969f" x="46.64" y="235.739585" style="stroke: #000000; stroke-width: 0.8"/>
      </g>
     </g>
     <g id="text_33">
      <!-- 10 -->
      <g transform="translate(26.915 239.538804) scale(0.1 -0.1)">
       <use xlink:href="#DejaVuSans-31"/>
       <use xlink:href="#DejaVuSans-30" x="63.623047"/>
      </g>
     </g>
    </g>
    <g id="ytick_5">
     <g id="line2d_65">
      <path d="M 46.64 185.289882 
L 709.2 185.289882 
" clip-path="url(#p5e97e169d5)" style="fill: none; stroke-dasharray: 1.85,0.8; stroke-dashoffset: 0; stroke: #b0b0b0; stroke-width: 0.5"/>
     </g>
     <g id="line2d_66">
      <g>
       <use xlink:href="#m22269e969f" x="46.64" y="185.289882" style="stroke: #000000; stroke-width: 0.8"/>
      </g>
     </g>
     <g id="text_34">
      <!-- 15 -->
      <g transform="translate(26.915 189.089101) scale(0.1 -0.1)">
       <use xlink:href="#DejaVuSans-31"/>
       <use xlink:href="#DejaVuSans-35" x="63.623047"/>
      </g>
     </g>
    </g>
    <g id="ytick_6">
     <g id="line2d_67">
      <path d="M 46.64 134.84018 
L 709.2 134.84018 
" clip-path="url(#p5e97e169d5)" style="fill: none; stroke-dasharray: 1.85,0.8; stroke-dashoffset: 0; stroke: #b0b0b0; stroke-width: 0.5"/>
     </g>
     <g id="line2d_68">
      <g>
       <use xlink:href="#m22269e969f" x="46.64" y="134.84018" style="stroke: #000000; stroke-width: 0.8"/>
      </g>
     </g>
     <g id="text_35">
      <!-- 20 -->
      <g transform="translate(26.915 138.639399) scale(0.1 -0.1)">
       <use xlink:href="#DejaVuSans-32"/>
       <use xlink:href="#DejaVuSans-30" x="63.623047"/>
      </g>
     </g>
    </g>
    <g id="ytick_7">
     <g id="line2d_69">
      <path d="M 46.64 84.390477 
L 709.2 84.390477 
" clip-path="url(#p5e97e169d5)" style="fill: none; stroke-dasharray: 1.85,0.8; stroke-dashoffset: 0; stroke: #b0b0b0; stroke-width: 0.5"/>
     </g>
     <g id="line2d_70">
      <g>
       <use xlink:href="#m22269e969f" x="46.64" y="84.390477" style="stroke: #000000; stroke-width: 0.8"/>
      </g>
     </g>
     <g id="text_36">
      <!-- 25 -->
      <g transform="translate(26.915 88.189696) scale(0.1 -0.1)">
       <use xlink:href="#DejaVuSans-32"/>
       <use xlink:href="#DejaVuSans-35" x="63.623047"/>
      </g>
     </g>
    </g>
    <g id="ytick_8">
     <g id="line2d_71">
      <path d="M 46.64 33.940775 
L 709.2 33.940775 
" clip-path="url(#p5e97e169d5)" style="fill: none; stroke-dasharray: 1.85,0.8; stroke-dashoffset: 0; stroke: #b0b0b0; stroke-width: 0.5"/>
     </g>
     <g id="line2d_72">
      <g>
       <use xlink:href="#m22269e969f" x="46.64" y="33.940775" style="stroke: #000000; stroke-width: 0.8"/>
      </g>
     </g>
     <g id="text_37">
      <!-- 30 -->
      <g transform="translate(26.915 37.739994) scale(0.1 -0.1)">
       <use xlink:href="#DejaVuSans-33"/>
       <use xlink:href="#DejaVuSans-30" x="63.623047"/>
      </g>
     </g>
    </g>
    <g id="text_38">
     <!-- Cumulative PnL -->
     <g transform="translate(18.818125 246.748594) rotate(-90) scale(0.1 -0.1)">
      <defs>
       <path id="DejaVuSans-43" d="M 4122 4306 
L 4122 3641 
Q 3803 3938 3442 4084 
Q 3081 4231 2675 4231 
Q 1875 4231 1450 3742 
Q 1025 3253 1025 2328 
Q 1025 1406 1450 917 
Q 1875 428 2675 428 
Q 3081 428 3442 575 
Q 3803 722 4122 1019 
L 4122 359 
Q 3791 134 3420 21 
Q 3050 -91 2638 -91 
Q 1578 -91 968 557 
Q 359 1206 359 2328 
Q 359 3453 968 4101 
Q 1578 4750 2638 4750 
Q 3056 4750 3426 4639 
Q 3797 4528 4122 4306 
z
" transform="scale(0.015625)"/>
       <path id="DejaVuSans-6c" d="M 603 4863 
L 1178 4863 
L 1178 0 
L 603 0 
L 603 4863 
z
" transform="scale(0.015625)"/>
       <path id="DejaVuSans-61" d="M 2194 1759 
Q 1497 1759 1228 1600 
Q 959 1441 959 1056 
Q 959 750 1161 570 
Q 1363 391 1709 391 
Q 2188 391 2477 730 
Q 2766 1069 2766 1631 
L 2766 1759 
L 2194 1759 
z
M 3341 1997 
L 3341 0 
L 2766 0 
L 2766 531 
Q 2569 213 2275 61 
Q 1981 -91 1556 -91 
Q 1019 -91 701 211 
Q 384 513 384 1019 
Q 384 1609 779 1909 
Q 1175 2209 1959 2209 
L 2766 2209 
L 2766 2266 
Q 2766 2663 2505 2880 
Q 2244 3097 1772 3097 
Q 1472 3097 1187 3025 
Q 903 2953 641 2809 
L 641 3341 
Q 956 3463 1253 3523 
Q 1550 3584 1831 3584 
Q 2591 3584 2966 3190 
Q 3341 2797 3341 1997 
z
" transform="scale(0.015625)"/>
       <path id="DejaVuSans-69" d="M 603 3500 
L 1178 3500 
L 1178 0 
L 603 0 
L 603 3500 
z
M 603 4863 
L 1178 4863 
L 1178 4134 
L 603 4134 
L 603 4863 
z
" transform="scale(0.015625)"/>
       <path id="DejaVuSans-76" d="M 191 3500 
L 800 3500 
L 1894 563 
L 2988 3500 
L 3597 3500 
L 2284 0 
L 1503 0 
L 191 3500 
z
" transform="scale(0.015625)"/>
       <path id="DejaVuSans-50" d="M 1259 4147 
L 1259 2394 
L 2053 2394 
Q 2494 2394 2734 2622 
Q 2975 2850 2975 3272 
Q 2975 3691 2734 3919 
Q 2494 4147 2053 4147 
L 1259 4147 
z
M 628 4666 
L 2053 4666 
Q 2838 4666 3239 4311 
Q 3641 3956 3641 3272 
Q 3641 2581 3239 2228 
Q 2838 1875 2053 1875 
L 1259 1875 
L 1259 0 
L 628 0 
L 628 4666 
z
" transform="scale(0.015625)"/>
       <path id="DejaVuSans-6e" d="M 3513 2113 
L 3513 0 
L 2938 0 
L 2938 2094 
Q 2938 2591 2744 2837 
Q 2550 3084 2163 3084 
Q 1697 3084 1428 2787 
Q 1159 2491 1159 1978 
L 1159 0 
L 581 0 
L 581 3500 
L 1159 3500 
L 1159 2956 
Q 1366 3272 1645 3428 
Q 1925 3584 2291 3584 
Q 2894 3584 3203 3211 
Q 3513 2838 3513 2113 
z
" transform="scale(0.015625)"/>
       <path id="DejaVuSans-4c" d="M 628 4666 
L 1259 4666 
L 1259 531 
L 3531 531 
L 3531 0 
L 628 0 
L 628 4666 
z
" transform="scale(0.015625)"/>
      </defs>
      <use xlink:href="#DejaVuSans-43"/>
      <use xlink:href="#DejaVuSans-75" x="69.824219"/>
      <use xlink:href="#DejaVuSans-6d" x="133.203125"/>
      <use xlink:href="#DejaVuSans-75" x="230.615234"/>
      <use xlink:href="#DejaVuSans-6c" x="293.994141"/>
      <use xlink:href="#DejaVuSans-61" x="321.777344"/>
      <use xlink:href="#DejaVuSans-74" x="383.056641"/>
      <use xlink:href="#DejaVuSans-69" x="422.265625"/>
      <use xlink:href="#DejaVuSans-76" x="450.048828"/>
      <use xlink:href="#DejaVuSans-65" x="509.228516"/>
      <use xlink:href="#DejaVuSans-20" x="570.751953"/>
      <use xlink:href="#DejaVuSans-50" x="602.539062"/>
      <use xlink:href="#DejaVuSans-6e" x="661.091797"/>
      <use xlink:href="#DejaVuSans-4c" x="724.470703"/>
     </g>
    </g>
   </g>
   <g id="line2d_73">
    <path d="M 76.756364 336.63899 
L 79.109205 323.622967 
L 81.462045 333.712907 
L 83.814886 327.658943 
L 86.167727 337.748883 
L 88.520568 331.392221 
L 95.579091 361.662042 
L 97.931932 353.287392 
L 102.637614 373.467273 
L 104.990455 371.953782 
L 107.343295 340.06957 
L 109.696136 332.502114 
L 116.754659 362.771936 
L 119.1075 360.451249 
L 121.460341 348.646019 
L 123.813182 343.197451 
L 126.166023 333.107511 
L 128.518864 319.385192 
L 130.871705 311.918636 
L 133.224545 302.837689 
L 135.577386 312.92763 
L 137.930227 310.102446 
L 140.283068 308.689855 
L 142.635909 301.626896 
L 144.98875 296.178328 
L 147.341591 289.922565 
L 149.694432 284.978495 
L 152.047273 279.731725 
L 154.400114 275.695749 
L 156.752955 270.751678 
L 159.105795 280.841619 
L 161.458636 278.520933 
L 163.811477 271.054377 
L 166.164318 265.303111 
L 168.517159 263.285122 
L 170.87 255.818566 
L 173.222841 265.908507 
L 175.575682 249.260105 
L 177.928523 247.948413 
L 180.281364 258.038353 
L 182.634205 246.73762 
L 184.987045 243.912437 
L 192.045568 225.548745 
L 194.398409 221.31097 
L 199.104091 241.490851 
L 201.456932 239.170165 
L 208.515455 269.439986 
L 210.868295 263.083324 
L 213.221136 247.847513 
L 215.573977 241.389952 
L 222.6325 271.659773 
L 224.985341 254.305075 
L 227.338182 240.380958 
L 229.691023 230.391916 
L 234.396705 250.571797 
L 236.749545 236.748579 
L 239.102386 234.326993 
L 241.455227 244.416934 
L 243.808068 237.656674 
L 246.160909 225.044248 
L 248.51375 220.907372 
L 250.866591 230.997313 
L 253.219432 221.613668 
L 257.925114 241.793549 
L 260.277955 228.575727 
L 262.630795 220.503775 
L 264.983636 206.680556 
L 267.336477 203.653574 
L 269.689318 213.743515 
L 274.395 207.588651 
L 276.747841 199.214 
L 279.100682 209.303941 
L 281.453523 208.093148 
L 283.806364 218.183088 
L 286.159205 216.770497 
L 288.512045 226.860437 
L 290.864886 220.301976 
L 293.217727 205.570663 
L 295.570568 203.956272 
L 300.27625 224.136153 
L 302.629091 221.512769 
L 304.981932 220.503775 
L 312.040455 250.773596 
L 314.393295 247.040318 
L 316.746136 257.130259 
L 319.098977 227.465834 
L 321.451818 219.292982 
L 323.804659 214.651609 
L 326.1575 212.83542 
L 328.510341 191.041148 
L 330.863182 180.64851 
L 333.216023 177.924226 
L 335.568864 188.014166 
L 337.921705 181.960202 
L 340.274545 171.971161 
L 342.627386 169.953173 
L 344.980227 180.043113 
L 347.333068 167.834285 
L 349.685909 164.504605 
L 359.097273 204.864367 
L 361.450114 201.131089 
L 363.802955 199.718497 
L 366.155795 196.489716 
L 368.508636 193.967231 
L 370.861477 186.601575 
L 373.214318 182.767397 
L 375.567159 192.857338 
L 377.92 188.720462 
L 382.625682 208.900343 
L 384.978523 205.469763 
L 387.331364 203.149077 
L 392.037045 223.328958 
L 394.389886 218.990284 
L 399.095568 239.170165 
L 401.448409 235.739585 
L 410.859773 276.099347 
L 413.212614 271.054377 
L 415.565455 264.193217 
L 417.918295 261.065336 
L 420.271136 258.845549 
L 422.623977 249.461904 
L 424.976818 259.551844 
L 427.329659 240.179159 
L 429.6825 250.269099 
L 432.035341 234.93239 
L 434.388182 232.107206 
L 436.741023 224.539751 
L 439.093864 234.629691 
L 441.446705 228.474828 
L 443.799545 223.02626 
L 446.152386 233.1162 
L 448.505227 230.694615 
L 453.210909 250.874496 
L 455.56375 245.12323 
L 457.916591 229.282023 
L 460.269432 220.100177 
L 462.622273 216.266 
L 464.975114 210.716532 
L 467.327955 194.976225 
L 469.680795 172.07206 
L 472.033636 162.183919 
L 474.386477 160.26683 
L 476.739318 138.775257 
L 481.445 158.955138 
L 483.797841 151.79128 
L 486.150682 146.140913 
L 488.503523 110.220725 
L 497.914886 150.580487 
L 500.267727 137.867162 
L 502.620568 132.317695 
L 504.973409 96.397507 
L 507.32625 106.487447 
L 509.679091 93.774122 
L 512.031932 91.857033 
L 514.384773 70.36546 
L 516.737614 47.461295 
L 521.443295 67.641176 
L 523.796136 51.900869 
L 526.148977 42.012727 
L 530.854659 62.192608 
L 533.2075 55.028751 
L 535.560341 65.118691 
L 537.913182 62.091709 
L 544.971705 92.36153 
L 547.324545 87.215661 
L 549.677386 84.289578 
L 552.030227 83.785081 
L 554.383068 80.455401 
L 556.735909 73.594241 
L 559.08875 69.255567 
L 561.441591 68.448371 
L 563.794432 64.916892 
L 566.147273 47.057698 
L 568.500114 44.535212 
L 570.852955 43.627118 
L 573.205795 53.717058 
L 575.558636 51.093674 
L 580.264318 71.273555 
L 582.617159 64.008798 
L 584.97 51.69907 
L 587.322841 61.789011 
L 589.675682 60.880916 
L 592.028523 70.970857 
L 594.381364 67.742076 
L 596.734205 55.230549 
L 599.087045 65.32049 
L 601.439886 61.587212 
L 603.792727 60.578218 
L 606.145568 58.762029 
L 608.498409 55.12965 
L 613.204091 75.309531 
L 615.556932 73.493342 
L 617.909773 72.887945 
L 620.262614 82.977886 
L 622.615455 78.437412 
L 624.968295 77.428418 
L 627.321136 70.264561 
L 629.673977 69.760064 
L 632.026818 79.850004 
L 634.379659 74.805034 
L 636.7325 73.089744 
L 639.085341 72.686146 
L 641.438182 82.776087 
L 643.791023 76.419424 
L 648.496705 96.599305 
L 650.849545 76.722123 
L 653.202386 86.812063 
L 655.555227 83.88598 
L 657.908068 78.134714 
L 660.260909 88.224655 
L 662.61375 85.803069 
L 664.966591 82.17069 
L 669.672273 102.350571 
L 672.025114 99.424489 
L 674.377955 95.691211 
L 676.730795 94.682217 
L 679.083636 104.772157 
L 679.083636 104.772157 
" clip-path="url(#p5e97e169d5)" style="fill: none; stroke: #1f77b4; stroke-width: 1.5; stroke-linecap: square"/>
   </g>
   <g id="line2d_74">
    <path d="M 76.756364 336.63899 
L 79.109205 330.129606 
L 81.462045 333.726754 
L 83.814886 332.601524 
L 86.167727 334.285629 
L 88.520568 332.612959 
L 90.873409 337.63116 
L 93.22625 337.669249 
L 95.579091 338.059408 
L 97.931932 334.688661 
L 104.990455 334.688661 
L 107.343295 322.141941 
L 109.696136 321.642742 
L 112.048977 321.782282 
L 114.401818 321.782282 
L 116.754659 323.926548 
L 119.1075 322.886638 
L 121.460341 320.159145 
L 123.813182 319.538392 
L 126.166023 315.411606 
L 128.518864 312.53339 
L 130.871705 311.762882 
L 133.224545 311.264742 
L 135.577386 318.088857 
L 137.930227 318.088857 
L 140.283068 317.421629 
L 142.635909 314.447922 
L 149.694432 314.447922 
L 152.047273 312.704057 
L 156.752955 312.704057 
L 159.105795 319.459273 
L 161.458636 319.459273 
L 163.811477 317.266688 
L 166.164318 315.53592 
L 168.517159 315.53592 
L 170.87 315.323709 
L 173.222841 322.438914 
L 175.575682 315.360165 
L 180.281364 315.360165 
L 182.634205 311.409267 
L 184.987045 310.597552 
L 187.339886 307.551944 
L 192.045568 307.551944 
L 194.398409 307.252858 
L 196.75125 309.936274 
L 199.104091 314.645902 
L 203.809773 314.645902 
L 206.162614 317.810245 
L 208.515455 320.277659 
L 210.868295 320.277659 
L 213.221136 316.886702 
L 220.279659 316.886702 
L 222.6325 320.419123 
L 224.985341 314.731141 
L 227.338182 312.33137 
L 229.691023 308.735476 
L 232.043864 308.735476 
L 234.396705 309.425628 
L 236.749545 307.202683 
L 239.102386 307.202683 
L 241.455227 308.850654 
L 243.808068 308.850654 
L 246.160909 306.81299 
L 248.51375 306.81299 
L 250.866591 310.43736 
L 253.219432 309.265727 
L 255.572273 312.489923 
L 257.925114 312.489923 
L 260.277955 309.247823 
L 262.630795 309.247823 
L 264.983636 298.600272 
L 267.336477 298.600272 
L 269.689318 299.309997 
L 274.395 299.309997 
L 276.747841 297.361024 
L 279.100682 301.057713 
L 288.512045 301.057713 
L 290.864886 300.011538 
L 293.217727 295.146673 
L 297.923409 295.146673 
L 300.27625 297.967473 
L 304.981932 297.967473 
L 307.334773 301.102081 
L 309.687614 302.683784 
L 312.040455 305.534145 
L 316.746136 305.534145 
L 319.098977 294.601977 
L 321.451818 294.378919 
L 326.1575 294.378919 
L 328.510341 287.869939 
L 330.863182 285.111157 
L 335.568864 285.111157 
L 337.921705 283.149673 
L 340.274545 281.953218 
L 342.627386 281.953218 
L 344.980227 283.560689 
L 347.333068 282.492326 
L 349.685909 280.739451 
L 352.03875 282.848314 
L 359.097273 282.848314 
L 361.450114 281.059963 
L 373.214318 281.059963 
L 375.567159 286.669552 
L 377.92 286.669552 
L 380.272841 294.662269 
L 382.625682 296.364347 
L 384.978523 294.293932 
L 387.331364 294.293932 
L 389.684205 299.877584 
L 392.037045 304.358823 
L 394.389886 304.04429 
L 396.742727 305.445313 
L 399.095568 309.198995 
L 401.448409 309.198995 
L 403.80125 309.924944 
L 406.154091 313.809775 
L 408.506932 319.751794 
L 413.212614 319.751794 
L 415.565455 317.572528 
L 420.271136 317.572528 
L 422.623977 314.595693 
L 424.976818 319.074002 
L 427.329659 305.564378 
L 429.6825 309.591493 
L 432.035341 306.914713 
L 434.388182 306.914713 
L 436.741023 303.851659 
L 441.446705 303.946249 
L 443.799545 303.946249 
L 446.152386 305.456857 
L 448.505227 305.456857 
L 450.858068 312.4736 
L 453.210909 312.625398 
L 455.56375 311.211454 
L 457.916591 308.302111 
L 460.269432 307.289575 
L 462.622273 306.482501 
L 464.975114 304.070299 
L 467.327955 300.098253 
L 469.680795 292.074429 
L 472.033636 286.553496 
L 474.386477 286.553496 
L 476.739318 277.937706 
L 479.092159 278.037825 
L 481.445 282.682963 
L 483.797841 278.90085 
L 486.150682 274.808774 
L 488.503523 255.751298 
L 490.856364 258.80504 
L 493.209205 258.90821 
L 495.562045 264.871146 
L 497.914886 266.450905 
L 500.267727 259.919545 
L 502.620568 257.779469 
L 504.973409 237.737376 
L 507.32625 244.000364 
L 509.679091 238.011722 
L 512.031932 238.011722 
L 514.384773 230.671826 
L 516.737614 222.822871 
L 519.090455 225.669112 
L 521.443295 225.729147 
L 523.796136 221.909499 
L 526.148977 216.580355 
L 528.501818 217.822915 
L 530.854659 220.716086 
L 533.2075 216.595798 
L 535.560341 221.129849 
L 537.913182 220.037612 
L 540.266023 222.95262 
L 542.618864 223.194778 
L 544.971705 226.115586 
L 547.324545 226.115586 
L 549.677386 225.937186 
L 561.441591 225.937186 
L 563.794432 225.00876 
L 566.147273 213.812639 
L 570.852955 213.812639 
L 573.205795 219.130757 
L 575.558636 219.130757 
L 577.911477 223.617853 
L 580.264318 226.7881 
L 582.617159 225.465592 
L 584.97 222.290449 
L 587.322841 228.108984 
L 592.028523 228.108984 
L 594.381364 227.075128 
L 596.734205 224.182786 
L 599.087045 226.301535 
L 608.498409 226.301535 
L 610.85125 231.822963 
L 617.909773 231.822963 
L 620.262614 239.883718 
L 622.615455 239.09302 
L 629.673977 239.09302 
L 632.026818 240.443891 
L 634.379659 239.951502 
L 641.438182 239.951502 
L 643.791023 236.708181 
L 646.143864 241.507763 
L 648.496705 247.868414 
L 650.849545 233.391307 
L 653.202386 235.827599 
L 655.555227 235.827599 
L 657.908068 233.114676 
L 660.260909 234.465642 
L 662.61375 234.465642 
L 664.966591 234.121131 
L 667.319432 236.351589 
L 669.672273 242.54933 
L 679.083636 242.54933 
L 679.083636 242.54933 
" clip-path="url(#p5e97e169d5)" style="fill: none; stroke: #ff7f0e; stroke-width: 1.5; stroke-linecap: square"/>
   </g>
   <g id="patch_3">
    <path d="M 46.64 390.04 
L 46.64 25.44 
" style="fill: none; stroke: #000000; stroke-width: 0.8; stroke-linejoin: miter; stroke-linecap: square"/>
   </g>
   <g id="patch_4">
    <path d="M 709.2 390.04 
L 709.2 25.44 
" style="fill: none; stroke: #000000; stroke-width: 0.8; stroke-linejoin: miter; stroke-linecap: square"/>
   </g>
   <g id="patch_5">
    <path d="M 46.64 390.04 
L 709.2 390.04 
" style="fill: none; stroke: #000000; stroke-width: 0.8; stroke-linejoin: miter; stroke-linecap: square"/>
   </g>
   <g id="patch_6">
    <path d="M 46.64 25.44 
L 709.2 25.44 
" style="fill: none; stroke: #000000; stroke-width: 0.8; stroke-linejoin: miter; stroke-linecap: square"/>
   </g>
   <g id="text_39">
    <!-- Cumulative PnL over Time (model_prob) -->
    <g transform="translate(257.341563 19.44) scale(0.12 -0.12)">
     <defs>
      <path id="DejaVuSans-6f" d="M 1959 3097 
Q 1497 3097 1228 2736 
Q 959 2375 959 1747 
Q 959 1119 1226 758 
Q 1494 397 1959 397 
Q 2419 397 2687 759 
Q 2956 1122 2956 1747 
Q 2956 2369 2687 2733 
Q 2419 3097 1959 3097 
z
M 1959 3584 
Q 2709 3584 3137 3096 
Q 3566 2609 3566 1747 
Q 3566 888 3137 398 
Q 2709 -91 1959 -91 
Q 1206 -91 779 398 
Q 353 888 353 1747 
Q 353 2609 779 3096 
Q 1206 3584 1959 3584 
z
" transform="scale(0.015625)"/>
      <path id="DejaVuSans-54" d="M -19 4666 
L 3928 4666 
L 3928 4134 
L 2272 4134 
L 2272 0 
L 1638 0 
L 1638 4134 
L -19 4134 
L -19 4666 
z
" transform="scale(0.015625)"/>
      <path id="DejaVuSans-28" d="M 1984 4856 
Q 1566 4138 1362 3434 
Q 1159 2731 1159 2009 
Q 1159 1288 1364 580 
Q 1569 -128 1984 -844 
L 1484 -844 
Q 1016 -109 783 600 
Q 550 1309 550 2009 
Q 550 2706 781 3412 
Q 1013 4119 1484 4856 
L 1984 4856 
z
" transform="scale(0.015625)"/>
      <path id="DejaVuSans-64" d="M 2906 2969 
L 2906 4863 
L 3481 4863 
L 3481 0 
L 2906 0 
L 2906 525 
Q 2725 213 2448 61 
Q 2172 -91 1784 -91 
Q 1150 -91 751 415 
Q 353 922 353 1747 
Q 353 2572 751 3078 
Q 1150 3584 1784 3584 
Q 2172 3584 2448 3432 
Q 2725 3281 2906 2969 
z
M 947 1747 
Q 947 1113 1208 752 
Q 1469 391 1925 391 
Q 2381 391 2643 752 
Q 2906 1113 2906 1747 
Q 2906 2381 2643 2742 
Q 2381 3103 1925 3103 
Q 1469 3103 1208 2742 
Q 947 2381 947 1747 
z
" transform="scale(0.015625)"/>
      <path id="DejaVuSans-5f" d="M 3263 -1063 
L 3263 -1509 
L -63 -1509 
L -63 -1063 
L 3263 -1063 
z
" transform="scale(0.015625)"/>
      <path id="DejaVuSans-70" d="M 1159 525 
L 1159 -1331 
L 581 -1331 
L 581 3500 
L 1159 3500 
L 1159 2969 
Q 1341 3281 1617 3432 
Q 1894 3584 2278 3584 
Q 2916 3584 3314 3078 
Q 3713 2572 3713 1747 
Q 3713 922 3314 415 
Q 2916 -91 2278 -91 
Q 1894 -91 1617 61 
Q 1341 213 1159 525 
z
M 3116 1747 
Q 3116 2381 2855 2742 
Q 2594 3103 2138 3103 
Q 1681 3103 1420 2742 
Q 1159 2381 1159 1747 
Q 1159 1113 1420 752 
Q 1681 391 2138 391 
Q 2594 391 2855 752 
Q 3116 1113 3116 1747 
z
" transform="scale(0.015625)"/>
      <path id="DejaVuSans-29" d="M 513 4856 
L 1013 4856 
Q 1481 4119 1714 3412 
Q 1947 2706 1947 2009 
Q 1947 1309 1714 600 
Q 1481 -109 1013 -844 
L 513 -844 
Q 928 -128 1133 580 
Q 1338 1288 1338 2009 
Q 1338 2731 1133 3434 
Q 928 4138 513 4856 
z
" transform="scale(0.015625)"/>
     </defs>
     <use xlink:href="#DejaVuSans-43"/>
     <use xlink:href="#DejaVuSans-75" x="69.824219"/>
     <use xlink:href="#DejaVuSans-6d" x="133.203125"/>
     <use xlink:href="#DejaVuSans-75" x="230.615234"/>
     <use xlink:href="#DejaVuSans-6c" x="293.994141"/>
     <use xlink:href="#DejaVuSans-61" x="321.777344"/>
     <use xlink:href="#DejaVuSans-74" x="383.056641"/>
     <use xlink:href="#DejaVuSans-69" x="422.265625"/>
     <use xlink:href="#DejaVuSans-76" x="450.048828"/>
     <use xlink:href="#DejaVuSans-65" x="509.228516"/>
     <use xlink:href="#DejaVuSans-20" x="570.751953"/>
     <use xlink:href="#DejaVuSans-50" x="602.539062"/>
     <use xlink:href="#DejaVuSans-6e" x="661.091797"/>
     <use xlink:href="#DejaVuSans-4c" x="724.470703"/>
     <use xlink:href="#DejaVuSans-20" x="780.183594"/>
     <use xlink:href="#DejaVuSans-6f" x="811.970703"/>
     <use xlink:href="#DejaVuSans-76" x="873.152344"/>
     <use xlink:href="#DejaVuSans-65" x="932.332031"/>
     <use xlink:href="#DejaVuSans-72" x="993.855469"/>
     <use xlink:href="#DejaVuSans-20" x="1034.96875"/>
     <use xlink:href="#DejaVuSans-54" x="1066.755859"/>
     <use xlink:href="#DejaVuSans-69" x="1124.714844"/>
     <use xlink:href="#DejaVuSans-6d" x="1152.498047"/>
     <use xlink:href="#DejaVuSans-65" x="1249.910156"/>
     <use xlink:href="#DejaVuSans-20" x="1311.433594"/>
     <use xlink:href="#DejaVuSans-28" x="1343.220703"/>
     <use xlink:href="#DejaVuSans-6d" x="1382.234375"/>
     <use xlink:href="#DejaVuSans-6f" x="1479.646484"/>
     <use xlink:href="#DejaVuSans-64" x="1540.828125"/>
     <use xlink:href="#DejaVuSans-65" x="1604.304688"/>
     <use xlink:href="#DejaVuSans-6c" x="1665.828125"/>
     <use xlink:href="#DejaVuSans-5f" x="1693.611328"/>
     <use xlink:href="#DejaVuSans-70" x="1743.611328"/>
     <use xlink:href="#DejaVuSans-72" x="1807.087891"/>
     <use xlink:href="#DejaVuSans-6f" x="1845.951172"/>
     <use xlink:href="#DejaVuSans-62" x="1907.132812"/>
     <use xlink:href="#DejaVuSans-29" x="1970.609375"/>
    </g>
   </g>
   <g id="legend_1">
    <g id="patch_7">
     <path d="M 53.64 63.3525 
L 216.87125 63.3525 
Q 218.87125 63.3525 218.87125 61.3525 
L 218.87125 32.44 
Q 218.87125 30.44 216.87125 30.44 
L 53.64 30.44 
Q 51.64 30.44 51.64 32.44 
L 51.64 61.3525 
Q 51.64 63.3525 53.64 63.3525 
z
" style="fill: #ffffff; opacity: 0.8; stroke: #cccccc; stroke-linejoin: miter"/>
    </g>
    <g id="line2d_75">
     <path d="M 55.64 38.538438 
L 65.64 38.538438 
L 75.64 38.538438 
" style="fill: none; stroke: #1f77b4; stroke-width: 1.5; stroke-linecap: square"/>
    </g>
    <g id="text_40">
     <!-- Unit Bet PnL (model_prob) -->
     <g transform="translate(83.64 42.038438) scale(0.1 -0.1)">
      <defs>
       <path id="DejaVuSans-55" d="M 556 4666 
L 1191 4666 
L 1191 1831 
Q 1191 1081 1462 751 
Q 1734 422 2344 422 
Q 2950 422 3222 751 
Q 3494 1081 3494 1831 
L 3494 4666 
L 4128 4666 
L 4128 1753 
Q 4128 841 3676 375 
Q 3225 -91 2344 -91 
Q 1459 -91 1007 375 
Q 556 841 556 1753 
L 556 4666 
z
" transform="scale(0.015625)"/>
      </defs>
      <use xlink:href="#DejaVuSans-55"/>
      <use xlink:href="#DejaVuSans-6e" x="73.193359"/>
      <use xlink:href="#DejaVuSans-69" x="136.572266"/>
      <use xlink:href="#DejaVuSans-74" x="164.355469"/>
      <use xlink:href="#DejaVuSans-20" x="203.564453"/>
      <use xlink:href="#DejaVuSans-42" x="235.351562"/>
      <use xlink:href="#DejaVuSans-65" x="303.955078"/>
      <use xlink:href="#DejaVuSans-74" x="365.478516"/>
      <use xlink:href="#DejaVuSans-20" x="404.6875"/>
      <use xlink:href="#DejaVuSans-50" x="436.474609"/>
      <use xlink:href="#DejaVuSans-6e" x="495.027344"/>
      <use xlink:href="#DejaVuSans-4c" x="558.40625"/>
      <use xlink:href="#DejaVuSans-20" x="614.119141"/>
      <use xlink:href="#DejaVuSans-28" x="645.90625"/>
      <use xlink:href="#DejaVuSans-6d" x="684.919922"/>
      <use xlink:href="#DejaVuSans-6f" x="782.332031"/>
      <use xlink:href="#DejaVuSans-64" x="843.513672"/>
      <use xlink:href="#DejaVuSans-65" x="906.990234"/>
      <use xlink:href="#DejaVuSans-6c" x="968.513672"/>
      <use xlink:href="#DejaVuSans-5f" x="996.296875"/>
      <use xlink:href="#DejaVuSans-70" x="1046.296875"/>
      <use xlink:href="#DejaVuSans-72" x="1109.773438"/>
      <use xlink:href="#DejaVuSans-6f" x="1148.636719"/>
      <use xlink:href="#DejaVuSans-62" x="1209.818359"/>
      <use xlink:href="#DejaVuSans-29" x="1273.294922"/>
     </g>
    </g>
    <g id="line2d_76">
     <path d="M 55.64 53.494688 
L 65.64 53.494688 
L 75.64 53.494688 
" style="fill: none; stroke: #ff7f0e; stroke-width: 1.5; stroke-linecap: square"/>
    </g>
    <g id="text_41">
     <!-- Kelly PnL (model_prob) -->
     <g transform="translate(83.64 56.994688) scale(0.1 -0.1)">
      <defs>
       <path id="DejaVuSans-4b" d="M 628 4666 
L 1259 4666 
L 1259 2694 
L 3353 4666 
L 4166 4666 
L 1850 2491 
L 4331 0 
L 3500 0 
L 1259 2247 
L 1259 0 
L 628 0 
L 628 4666 
z
" transform="scale(0.015625)"/>
       <path id="DejaVuSans-79" d="M 2059 -325 
Q 1816 -950 1584 -1140 
Q 1353 -1331 966 -1331 
L 506 -1331 
L 506 -850 
L 844 -850 
Q 1081 -850 1212 -737 
Q 1344 -625 1503 -206 
L 1606 56 
L 191 3500 
L 800 3500 
L 1894 763 
L 2988 3500 
L 3597 3500 
L 2059 -325 
z
" transform="scale(0.015625)"/>
      </defs>
      <use xlink:href="#DejaVuSans-4b"/>
      <use xlink:href="#DejaVuSans-65" x="60.576172"/>
      <use xlink:href="#DejaVuSans-6c" x="122.099609"/>
      <use xlink:href="#DejaVuSans-6c" x="149.882812"/>
      <use xlink:href="#DejaVuSans-79" x="177.666016"/>
      <use xlink:href="#DejaVuSans-20" x="236.845703"/>
      <use xlink:href="#DejaVuSans-50" x="268.632812"/>
      <use xlink:href="#DejaVuSans-6e" x="327.185547"/>
      <use xlink:href="#DejaVuSans-4c" x="390.564453"/>
      <use xlink:href="#DejaVuSans-20" x="446.277344"/>
      <use xlink:href="#DejaVuSans-28" x="478.064453"/>
      <use xlink:href="#DejaVuSans-6d" x="517.078125"/>
      <use xlink:href="#DejaVuSans-6f" x="614.490234"/>
      <use xlink:href="#DejaVuSans-64" x="675.671875"/>
      <use xlink:href="#DejaVuSans-65" x="739.148438"/>
      <use xlink:href="#DejaVuSans-6c" x="800.671875"/>
      <use xlink:href="#DejaVuSans-5f" x="828.455078"/>
      <use xlink:href="#DejaVuSans-70" x="878.455078"/>
      <use xlink:href="#DejaVuSans-72" x="941.931641"/>
      <use xlink:href="#DejaVuSans-6f" x="980.794922"/>
      <use xlink:href="#DejaVuSans-62" x="1041.976562"/>
      <use xlink:href="#DejaVuSans-29" x="1105.453125"/>
     </g>
    </g>
   </g>
  </g>
 </g>
 <defs>
  <clipPath id="p5e97e169d5">
   <rect x="46.64" y="25.44" width="662.56" height="364.6"/>
  </clipPath>
 </defs>
</svg>
